<svg width="64" height="64" viewBox="0 0 64 64" fill="none" xmlns="http://www.w3.org/2000/svg">
<path d="M63.0655 53.0909H56.7495V39.2114H62.0956C63.1456 39.2114 63.9999 38.3571 63.9999 37.3071V33.9717C63.9999 32.9217 63.1456 32.0675 62.0956 32.0675H54.7586V27.797H59.0552C60.222 27.797 61.1711 26.8479 61.1711 25.6811V23.4596C61.1711 23.0225 61.0379 22.6158 60.8097 22.2782C61.0377 21.9406 61.1711 21.5341 61.1711 21.0968V18.8752C61.1711 18.4381 61.0379 18.0315 60.8097 17.6938C61.0377 17.3562 61.1711 16.9497 61.1711 16.5125V14.2912C61.1711 13.1245 60.222 12.1754 59.0552 12.1754H54.7586V9.9746C54.7586 9.45847 54.3402 9.0401 53.8241 9.0401C53.3079 9.0401 52.8896 9.45847 52.8896 9.9746V12.1752H11.1105V9.9746C11.1105 9.45847 10.6921 9.0401 10.176 9.0401C9.65987 9.0401 9.2415 9.45847 9.2415 9.9746V12.1752H4.94487C3.77812 12.1752 2.829 13.1245 2.829 14.2911V16.5126C2.829 16.9497 2.96225 17.3564 3.19038 17.694C2.96238 18.0316 2.829 18.4381 2.829 18.8754V21.097C2.829 21.5341 2.96225 21.9407 3.19038 22.2784C2.96238 22.616 2.829 23.0225 2.829 23.4597V25.6812C2.829 26.848 3.77825 27.7971 4.94487 27.7971H9.2415V32.0676H1.90437C0.854375 32.0676 0.000125 32.9218 0.000125 33.9718V37.3072C0.000125 38.3572 0.854375 39.2115 1.90437 39.2115H7.2505V53.091H0.9345C0.418375 53.091 0 53.5093 0 54.0255C0 54.5416 0.418375 54.96 0.9345 54.96H63.0654C63.5815 54.96 63.9999 54.5416 63.9999 54.0255C63.9999 53.5093 63.5816 53.0909 63.0655 53.0909ZM4.698 14.2912C4.698 14.1551 4.80875 14.0444 4.94487 14.0444H59.0552C59.1912 14.0444 59.302 14.1551 59.302 14.2912V16.5127C59.302 16.6489 59.1912 16.7595 59.0552 16.7595H4.94487C4.80875 16.7595 4.698 16.6489 4.698 16.5127V14.2912ZM4.698 18.8754C4.698 18.7392 4.80875 18.6286 4.94487 18.6286H59.0552C59.1912 18.6286 59.302 18.7392 59.302 18.8754V21.097C59.302 21.2331 59.1912 21.3437 59.0552 21.3437H4.94487C4.80875 21.3437 4.698 21.2331 4.698 21.097V18.8754ZM4.94487 25.928C4.80875 25.928 4.698 25.8172 4.698 25.6812V23.4597C4.698 23.3236 4.80875 23.213 4.94487 23.213H59.0552C59.1912 23.213 59.302 23.3236 59.302 23.4597V25.6812C59.302 25.8172 59.1912 25.928 59.0552 25.928H19.4128C18.8966 25.928 18.4783 26.3463 18.4783 26.8625C18.4783 27.3786 18.8966 27.797 19.4128 27.797H52.8895V32.0675H11.1105V27.797H15.0378C15.5539 27.797 15.9722 27.3786 15.9722 26.8625C15.9722 26.3463 15.5539 25.928 15.0378 25.928H4.94487ZM1.90437 37.3422C1.885 37.3422 1.86925 37.3265 1.86925 37.3071V33.9717C1.86925 33.9523 1.885 33.9366 1.90437 33.9366H62.0956C62.115 33.9366 62.1307 33.9523 62.1307 33.9717V37.3071C62.1307 37.3265 62.1149 37.3422 62.0956 37.3422H1.90437ZM11.3151 53.0909H9.1195V39.2114H11.315V53.0909H11.3151ZM54.8804 53.0909H52.6849V46.9351C52.6849 46.419 52.2665 46.0006 51.7504 46.0006C51.2342 46.0006 50.8159 46.419 50.8159 46.9351V53.0909H13.1841V39.2114H50.8158V42.5603C50.8158 43.0765 51.2341 43.4949 51.7503 43.4949C52.2664 43.4949 52.6847 43.0765 52.6847 42.5603V39.2114H54.8802V53.0909H54.8804Z" fill="black"/>
</svg>
