<svg width="64" height="64" viewBox="0 0 64 64" fill="none" xmlns="http://www.w3.org/2000/svg">
<path d="M55.8518 10.5497C56.3341 10.5497 56.7251 10.9407 56.7251 11.423C56.7251 11.9053 56.3341 12.2963 55.8518 12.2963H36.9123C36.43 12.2963 36.039 11.9053 36.039 11.423C36.039 10.9407 36.43 10.5497 36.9123 10.5497H55.8518Z" fill="black"/>
<path d="M55.8518 17.0994C56.3341 17.0994 56.7251 17.4904 56.7251 17.9727C56.7251 18.455 56.3341 18.846 55.8518 18.846H36.9123C36.43 18.846 36.039 18.455 36.039 17.9727C36.039 17.4904 36.43 17.0994 36.9123 17.0994H55.8518Z" fill="black"/>
<path d="M55.8518 20.3742C56.3341 20.3742 56.7251 20.7652 56.7251 21.2475C56.7251 21.7298 56.3341 22.1208 55.8518 22.1208H36.9123C36.43 22.1208 36.039 21.7298 36.039 21.2475C36.039 20.7652 36.43 20.3742 36.9123 20.3742H55.8518Z" fill="black"/>
<path d="M55.8518 26.924C56.3341 26.924 56.7251 27.3149 56.7251 27.7972C56.7251 28.2796 56.3341 28.6705 55.8518 28.6705H36.9123C36.43 28.6705 36.039 28.2796 36.039 27.7972C36.039 27.3149 36.43 26.924 36.9123 26.924H55.8518Z" fill="black"/>
<path d="M27.0877 10.5497C27.57 10.5497 27.961 10.9407 27.961 11.423C27.961 11.9053 27.57 12.2963 27.0877 12.2963H8.14815C7.66584 12.2963 7.27486 11.9053 7.27486 11.423C7.27486 10.9407 7.66584 10.5497 8.14815 10.5497H27.0877Z" fill="black"/>
<path d="M7.27486 55.8518V43.462C7.27486 42.9797 7.66584 42.5887 8.14815 42.5887C8.63046 42.5887 9.02145 42.9797 9.02145 43.462V55.8518C9.02145 56.3341 8.63046 56.7251 8.14815 56.7251C7.66584 56.7251 7.27486 56.3341 7.27486 55.8518Z" fill="black"/>
<path d="M7.27486 40.1871V4.87329C7.27486 4.39099 7.66584 4 8.14815 4H27.0877L27.1773 4.00426C27.6175 4.04909 27.961 4.42121 27.961 4.87329V55.8518C27.961 56.3342 27.57 56.7251 27.0877 56.7251C26.6054 56.7251 26.2144 56.3342 26.2144 55.8518V5.74659H9.02145V40.1871C9.02145 40.6694 8.63046 41.0604 8.14815 41.0604C7.66584 41.0604 7.27486 40.6694 7.27486 40.1871Z" fill="black"/>
<path d="M27.0877 17.0994C27.57 17.0994 27.961 17.4904 27.961 17.9727C27.961 18.455 27.57 18.846 27.0877 18.846H8.14815C7.66584 18.846 7.27486 18.455 7.27486 17.9727C7.27486 17.4904 7.66584 17.0994 8.14815 17.0994H27.0877Z" fill="black"/>
<path d="M27.0877 20.3742C27.57 20.3742 27.961 20.7652 27.961 21.2475C27.961 21.7298 27.57 22.1208 27.0877 22.1208H8.14815C7.66584 22.1208 7.27486 21.7298 7.27486 21.2475C7.27486 20.7652 7.66584 20.3742 8.14815 20.3742H27.0877Z" fill="black"/>
<path d="M27.0877 26.924C27.57 26.924 27.961 27.3149 27.961 27.7972C27.961 28.2796 27.57 28.6705 27.0877 28.6705H8.14815C7.66584 28.6705 7.27486 28.2796 7.27486 27.7972C7.27486 27.3149 7.66584 26.924 8.14815 26.924H27.0877Z" fill="black"/>
<path d="M27.0877 54.9785C29.3787 54.9785 31.2359 56.8357 31.2359 59.1267C31.2359 59.609 30.8449 60 30.3626 60H4.87329C4.39099 60 4 59.609 4 59.1267C4 56.8357 5.85714 54.9785 8.14815 54.9785H27.0877ZM8.14815 56.7251C7.13018 56.7251 6.26245 57.3593 5.91289 58.2534H29.323C28.9734 57.3593 28.1057 56.7251 27.0877 56.7251H8.14815Z" fill="black"/>
<path d="M36.039 55.8518V43.462C36.039 42.9797 36.43 42.5887 36.9123 42.5887C37.3946 42.5887 37.7856 42.9797 37.7856 43.462V55.8518C37.7856 56.3341 37.3946 56.7251 36.9123 56.7251C36.43 56.7251 36.039 56.3341 36.039 55.8518Z" fill="black"/>
<path d="M36.039 40.1871V4.87329C36.039 4.39099 36.43 4 36.9123 4H55.8518L55.9414 4.00426C56.3816 4.04909 56.7251 4.42121 56.7251 4.87329V55.8518C56.7251 56.3342 56.3341 56.7251 55.8518 56.7251C55.3695 56.7251 54.9785 56.3342 54.9785 55.8518V5.74659H37.7856V40.1871C37.7856 40.6694 37.3946 41.0604 36.9123 41.0604C36.43 41.0604 36.039 40.6694 36.039 40.1871Z" fill="black"/>
<path d="M55.8519 54.9785C58.1427 54.9785 60 56.8356 60 59.1267C60 59.609 59.609 60 59.1267 60H33.6374C33.1551 60 32.7641 59.609 32.7641 59.1267C32.7641 56.8357 34.6213 54.9785 36.9123 54.9785H55.8519ZM36.9123 56.7251C35.8943 56.7251 35.0266 57.3593 34.677 58.2534H58.0871C57.7375 57.3593 56.8698 56.7251 55.8519 56.7251H36.9123Z" fill="black"/>
</svg>
