<svg width="40" height="40" viewBox="0 0 40 40" fill="none" xmlns="http://www.w3.org/2000/svg">
<rect width="40" height="40" rx="20" fill="#69AB3D"/>
<path d="M33.0001 20L20.0001 33L7.00012 20L20.0001 7L33.0001 20ZM22.2638 14.1582C21.8821 13.7768 21.2636 13.7767 20.882 14.1582C20.5004 14.5399 20.5003 15.1594 20.882 15.541L22.67 17.3281H16.171C15.6187 17.3281 15.171 17.7758 15.171 18.3281V25.1523C15.1717 25.6916 15.6092 26.1289 16.1486 26.1289C16.6879 26.1288 17.1254 25.6915 17.1261 25.1523V19.2832H22.6691L20.882 21.0693C20.5004 21.4511 20.5003 22.0705 20.882 22.4521C21.2636 22.8334 21.8822 22.8334 22.2638 22.4521L25.7042 19.0127C26.0947 18.6222 26.0945 17.9882 25.7042 17.5977L22.2638 14.1582Z" fill="white"/>
</svg>
