<svg width="64" height="64" viewBox="0 0 64 64" fill="none" xmlns="http://www.w3.org/2000/svg">
<path d="M62.129 11.009L48.945 9.289C42.8015 8.47509 37.096 5.66413 32.707 1.289C32.5195 1.10153 32.2652 0.996216 32 0.996216C31.7348 0.996216 31.4805 1.10153 31.293 1.289C26.904 5.66413 21.1985 8.47509 15.055 9.289L1.871 11.009C1.63027 11.0403 1.40914 11.1581 1.24888 11.3405C1.08862 11.5228 1.00016 11.7572 1 12V20C1 20.2652 1.10536 20.5196 1.29289 20.7071C1.48043 20.8946 1.73478 21 2 21V62C2 62.2652 2.10536 62.5196 2.29289 62.7071C2.48043 62.8946 2.73478 63 3 63H7C7.26522 63 7.51957 62.8946 7.70711 62.7071C7.89464 62.5196 8 62.2652 8 62V25.414L12.414 21H14V50C14 50.2652 14.1054 50.5196 14.2929 50.7071C14.4804 50.8946 14.7348 51 15 51H19C19.2652 51 19.5196 50.8946 19.7071 50.7071C19.8946 50.5196 20 50.2652 20 50V25.414L24.414 21H39.586L44 25.414V50C44 50.2652 44.1054 50.5196 44.2929 50.7071C44.4804 50.8946 44.7348 51 45 51H49C49.2652 51 49.5196 50.8946 49.7071 50.7071C49.8946 50.5196 50 50.2652 50 50V21H51.586L56 25.414V62C56 62.2652 56.1054 62.5196 56.2929 62.7071C56.4804 62.8946 56.7348 63 57 63H61C61.2652 63 61.5196 62.8946 61.7071 62.7071C61.8946 62.5196 62 62.2652 62 62V21C62.2652 21 62.5196 20.8946 62.7071 20.7071C62.8946 20.5196 63 20.2652 63 20V12C62.9998 11.7572 62.9114 11.5228 62.7511 11.3405C62.5909 11.1581 62.3697 11.0403 62.129 11.009ZM3 19V13H61V19H3ZM32 3.391C36.2088 7.30964 41.4463 9.94887 47.1 11H16.9C22.5537 9.94887 27.7912 7.30964 32 3.391ZM4 61V21H6V61H4ZM8 22.586V21H9.586L8 22.586ZM16 49V21H18V49H16ZM20 22.586V21H21.586L20 22.586ZM42.414 21H44V22.586L42.414 21ZM48 49H46V21H48V49ZM54.414 21H56V22.586L54.414 21ZM60 61H58V21H60V61Z" fill="black"/>
</svg>
