<svg width="64" height="64" viewBox="0 0 64 64" fill="none" xmlns="http://www.w3.org/2000/svg">
<g clip-path="url(#clip0_6_319)">
<path d="M37.2803 17.6605V13.7861C37.2803 13.4101 37.5851 13.1053 37.9611 13.1053C38.3371 13.1053 38.642 13.4101 38.642 13.7861V17.6605L38.6387 17.7303C38.6037 18.0735 38.3136 18.3413 37.9611 18.3413C37.6087 18.3413 37.3185 18.0735 37.2836 17.7303L37.2803 17.6605Z" fill="black"/>
<path d="M39.3535 14.2139C39.6856 14.0379 40.0975 14.1645 40.2737 14.4965C40.4499 14.8286 40.3233 15.2411 39.9911 15.4173L36.5689 17.2325C36.2367 17.4087 35.8242 17.2821 35.648 16.9499C35.4721 16.6178 35.5986 16.2059 35.9306 16.0297L39.3535 14.2139Z" fill="black"/>
<path d="M35.648 14.4965C35.8242 14.1643 36.2367 14.0377 36.5689 14.2139L39.9911 16.0298C40.3232 16.2059 40.4498 16.6178 40.2737 16.95C40.0975 17.2821 39.6856 17.4087 39.3535 17.2325L35.9306 15.4174C35.5984 15.2412 35.4718 14.8287 35.648 14.4965Z" fill="black"/>
<path d="M20.077 6.49647V2.62214C20.077 2.24611 20.3819 1.94128 20.7579 1.94128C21.1339 1.94128 21.4387 2.24611 21.4387 2.62214V6.49647C21.4387 6.87249 21.1339 7.17732 20.7579 7.17732C20.3819 7.17732 20.077 6.87249 20.077 6.49647Z" fill="black"/>
<path d="M22.1502 3.04991C22.4823 2.87383 22.8942 3.00049 23.0704 3.33249C23.2466 3.66465 23.1207 4.07714 22.7885 4.25336L19.3657 6.06852C19.0335 6.24472 18.621 6.11813 18.4448 5.78594C18.2688 5.45385 18.3954 5.04191 18.7274 4.86573L22.1502 3.04991Z" fill="black"/>
<path d="M18.4448 3.33251C18.621 3.00033 19.0335 2.87375 19.3656 3.04993L22.7885 4.86576C23.1205 5.04201 23.2465 5.45386 23.0704 5.78597C22.8942 6.11815 22.4824 6.24475 22.1502 6.06855L18.7273 4.25339C18.3952 4.07719 18.2686 3.66469 18.4448 3.33251Z" fill="black"/>
<path d="M37.9612 4.45203C40.0877 4.4521 41.7346 6.31342 41.4759 8.4241L41.2864 9.962L42.5251 9.02982C44.2236 7.75023 46.6586 8.24607 47.7219 10.0877C48.785 11.9294 47.9966 14.2865 46.039 15.1176L44.6122 15.7226L46.039 16.329C47.9965 17.1602 48.7852 19.5172 47.7219 21.3589C46.6585 23.2007 44.2229 23.6964 42.5244 22.4168L41.2864 21.4839L41.4752 23.0225C41.734 25.1333 40.0872 26.9946 37.9606 26.9946C35.8342 26.9944 34.1878 25.1332 34.4466 23.0225L34.6348 21.4833L33.3974 22.4161C31.699 23.696 29.2633 23.2006 28.1999 21.3589C27.1366 19.5172 27.9255 17.1602 29.8828 16.329L31.309 15.7226L29.8828 15.1176C27.9253 14.2864 27.1366 11.9294 28.1999 10.0877C29.2633 8.24594 31.6989 7.75019 33.3974 9.02982L34.6348 9.962L34.4466 8.4241C34.1878 6.31334 35.8346 4.45203 37.9612 4.45203ZM37.9612 5.81373C36.6524 5.81373 35.639 6.95936 35.7983 8.25854L36.182 11.3889C36.2151 11.6599 36.0833 11.9245 35.8469 12.0611C35.6103 12.1977 35.3151 12.1795 35.0969 12.0152L32.5776 10.1176C31.5322 9.33015 30.0332 9.63511 29.3788 10.7685C28.7245 11.902 29.21 13.3527 30.4147 13.8643L33.3176 15.0963C33.5691 15.2031 33.7325 15.4501 33.7325 15.7233C33.7325 15.9964 33.5689 16.2428 33.3176 16.3496L30.4147 17.5823C29.2101 18.0939 28.7244 19.5446 29.3788 20.6781C30.0332 21.8116 31.5324 22.1165 32.5776 21.329L35.0962 19.4314C35.3144 19.267 35.6103 19.2489 35.8469 19.3855C36.0833 19.5222 36.2152 19.7867 36.182 20.0577L35.7977 23.1881C35.6383 24.4872 36.652 25.6327 37.9606 25.6329C39.2694 25.6329 40.2835 24.4872 40.1241 23.1881L39.7398 20.0577C39.7067 19.7868 39.8386 19.5221 40.0749 19.3855C40.3115 19.2489 40.6074 19.267 40.8256 19.4314L43.3442 21.329C44.3897 22.1165 45.8887 21.8115 46.543 20.6781C47.1973 19.5446 46.7118 18.0939 45.5071 17.5823L42.6042 16.3496C42.3528 16.2428 42.1893 15.9964 42.1893 15.7233C42.1893 15.4501 42.3527 15.2031 42.6042 15.0963L45.5071 13.8643C46.7117 13.3529 47.1972 11.902 46.543 10.7685C45.909 9.67032 44.4821 9.34977 43.4433 10.0471L43.3442 10.1176L40.8256 12.0152C40.6075 12.1795 40.3122 12.1975 40.0756 12.0611C39.8391 11.9245 39.7067 11.6599 39.7398 11.3889L40.1241 8.25854C40.2835 6.95938 39.2698 5.81381 37.9612 5.81373Z" fill="black"/>
<path d="M53.9693 21.2774C55.3354 21.2775 56.3936 22.4732 56.2272 23.8293L56.2079 23.9815L56.331 23.8898C57.4219 23.068 58.9861 23.3858 59.6694 24.5686H59.67C60.3532 25.7518 59.8464 27.2661 58.5889 27.8L58.4466 27.8599L58.5889 27.9204C59.8466 28.4543 60.3531 29.9686 59.67 31.1517C58.9869 32.3349 57.4222 32.6535 56.331 31.8313L56.2079 31.7388L56.2272 31.8918C56.3935 33.2478 55.3354 34.4436 53.9693 34.4436C52.603 34.4436 51.545 33.2478 51.7113 31.8918L51.7299 31.7382L51.6069 31.8313C50.5158 32.6532 48.9509 32.3351 48.2678 31.1517C47.5847 29.9685 48.0914 28.4541 49.3489 27.9204L49.4905 27.8599L49.3489 27.8C48.0913 27.266 47.5847 25.7517 48.2678 24.5686L48.3343 24.4603C49.0482 23.3668 50.5498 23.0933 51.6069 23.8898L51.7299 23.9822L51.7113 23.8293C51.5448 22.4731 52.603 21.2774 53.9693 21.2774ZM53.9693 22.6391C53.4208 22.6391 52.9955 23.1194 53.0623 23.6637L53.2764 25.4077C53.3097 25.6789 53.1779 25.944 52.9413 26.0806C52.7048 26.2172 52.4095 26.199 52.1913 26.0347L50.7877 24.9769C50.3498 24.6469 49.7216 24.7751 49.4473 25.2501L49.4466 25.2495C49.1725 25.7243 49.3762 26.3323 49.8808 26.5467L51.4992 27.2335C51.7505 27.3403 51.9134 27.5874 51.9134 27.8605C51.9133 28.1335 51.7504 28.38 51.4992 28.4868L49.8808 29.1737C49.3762 29.3879 49.173 29.9959 49.4473 30.4709C49.7214 30.9458 50.3496 31.0735 50.7877 30.7435L52.1913 29.6863C52.4095 29.5219 52.7047 29.5038 52.9413 29.6404C53.1779 29.777 53.3103 30.0415 53.2771 30.3126L53.063 32.0573C52.9962 32.6017 53.4208 33.0819 53.9693 33.0819C54.5177 33.0819 54.9423 32.6016 54.8755 32.0573L54.6614 30.3126C54.6283 30.0417 54.7602 29.777 54.9965 29.6404C55.2331 29.5038 55.529 29.5219 55.7472 29.6863L57.1508 30.7435C57.5887 31.0735 58.2169 30.946 58.4912 30.4709C58.7652 29.996 58.5618 29.388 58.057 29.1737L56.4393 28.4868C56.1879 28.3801 56.0245 28.1337 56.0244 27.8605C56.0244 27.5873 56.1879 27.3403 56.4393 27.2335L58.057 26.5467C58.5617 26.3323 58.7653 25.7243 58.4912 25.2495H58.4905C58.2163 24.775 57.5888 24.6471 57.1508 24.9769L55.7465 26.0347C55.5283 26.199 55.233 26.2171 54.9965 26.0806C54.76 25.944 54.6281 25.6788 54.6614 25.4077L54.8755 23.6637C54.9423 23.1194 54.5176 22.6393 53.9693 22.6391Z" fill="black"/>
<path d="M5.38412 60.0348V45.9337C5.38412 45.5577 5.68895 45.2529 6.06498 45.2529H29.1574C29.5334 45.2529 29.8382 45.5577 29.8382 45.9337C29.8382 46.3097 29.5334 46.6146 29.1574 46.6146H6.74583V60.0348C6.74583 61.2142 7.70155 62.1704 8.88014 62.1704H55.2325C56.4115 62.1704 57.3682 61.2137 57.3682 60.0348V50.3333C57.3683 49.9574 57.6731 49.6525 58.049 49.6525C58.4248 49.6526 58.7297 49.9575 58.7299 50.3333V60.0348C58.7299 61.9658 57.1635 63.5321 55.2325 63.5321H8.88014C6.94872 63.5321 5.38412 61.9654 5.38412 60.0348Z" fill="black"/>
<path d="M58.0489 45.2529C58.4248 45.2529 58.7297 45.5577 58.7297 45.9337C58.7297 46.3097 58.4248 46.6145 58.0489 46.6146H44.0675C43.6915 46.6146 43.3866 46.3097 43.3866 45.9337C43.3866 45.5577 43.6915 45.2529 44.0675 45.2529H58.0489Z" fill="black"/>
<path d="M14.0476 62.851V45.9341C14.0476 45.5581 14.3525 45.2532 14.7285 45.2532C15.1045 45.2532 15.4093 45.5581 15.4093 45.9341V62.851L15.406 62.9208C15.3712 63.2641 15.081 63.5318 14.7285 63.5318C14.3759 63.5318 14.0858 63.2641 14.051 62.9208L14.0476 62.851Z" fill="black"/>
<path d="M22.7116 62.851V45.9341C22.7116 45.5581 23.0164 45.2532 23.3925 45.2532C23.7685 45.2532 24.0733 45.5581 24.0733 45.9341V62.851L24.07 62.9208C24.0351 63.2641 23.745 63.5318 23.3925 63.5318C23.0399 63.5318 22.7498 63.2641 22.7149 62.9208L22.7116 62.851Z" fill="black"/>
<path d="M31.3756 62.8513V48.8752C31.3756 48.4992 31.6804 48.1944 32.0565 48.1944C32.4325 48.1944 32.7373 48.4992 32.7373 48.8752V62.8513C32.7373 63.2273 32.4325 63.5322 32.0565 63.5322C31.6805 63.5322 31.3756 63.2273 31.3756 62.8513Z" fill="black"/>
<path d="M40.0396 62.8509V49.5723C40.0396 49.1963 40.3444 48.8915 40.7205 48.8915C41.0965 48.8915 41.4013 49.1963 41.4013 49.5723V62.8509C41.4013 63.2269 41.0965 63.5318 40.7205 63.5318C40.3444 63.5318 40.0396 63.2269 40.0396 62.8509Z" fill="black"/>
<path d="M48.7036 62.851V45.9341C48.7036 45.5581 49.0084 45.2532 49.3845 45.2532C49.7605 45.2532 50.0653 45.5581 50.0653 45.9341V62.851L50.062 62.9208C50.0272 63.2641 49.737 63.5318 49.3845 63.5318C49.0319 63.5318 48.7418 63.2641 48.7069 62.9208L48.7036 62.851Z" fill="black"/>
<path d="M11.4022 58.3918C11.4022 58.9096 10.9825 59.3293 10.4647 59.3293C9.94695 59.3293 9.52722 58.9096 9.52722 58.3918C9.52722 57.8741 9.94695 57.4543 10.4647 57.4543C10.9825 57.4543 11.4022 57.8741 11.4022 58.3918Z" fill="black"/>
<path d="M20.0662 58.3918C20.0662 58.9096 19.6465 59.3293 19.1287 59.3293C18.611 59.3293 18.1912 58.9096 18.1912 58.3918C18.1912 57.8741 18.611 57.4543 19.1287 57.4543C19.6465 57.4543 20.0662 57.8741 20.0662 58.3918Z" fill="black"/>
<path d="M28.7302 58.3918C28.7302 58.9096 28.3105 59.3293 27.7927 59.3293C27.275 59.3293 26.8552 58.9096 26.8552 58.3918C26.8552 57.8741 27.275 57.4543 27.7927 57.4543C28.3105 57.4543 28.7302 57.8741 28.7302 58.3918Z" fill="black"/>
<path d="M37.3942 58.3918C37.3942 58.9096 36.9745 59.3293 36.4567 59.3293C35.939 59.3293 35.5192 58.9096 35.5192 58.3918C35.5192 57.8741 35.939 57.4543 36.4567 57.4543C36.9745 57.4543 37.3942 57.8741 37.3942 58.3918Z" fill="black"/>
<path d="M46.0582 58.3918C46.0582 58.9096 45.6385 59.3293 45.1207 59.3293C44.603 59.3293 44.1832 58.9096 44.1832 58.3918C44.1832 57.8741 44.603 57.4543 45.1207 57.4543C45.6385 57.4543 46.0582 57.8741 46.0582 58.3918Z" fill="black"/>
<path d="M54.7222 58.3918C54.7222 58.9096 54.3025 59.3293 53.7847 59.3293C53.267 59.3293 52.8472 58.9096 52.8472 58.3918C52.8472 57.8741 53.267 57.4543 53.7847 57.4543C54.3025 57.4543 54.7222 57.8741 54.7222 58.3918Z" fill="black"/>
<path d="M23.804 12.4237C24.1365 12.248 24.5486 12.3751 24.7242 12.7076C24.8996 13.0399 24.7725 13.4514 24.4403 13.6271C23.6817 14.0279 23.2478 14.7078 23.0008 15.3359C22.8786 15.6468 22.8074 15.9318 22.7675 16.1378C22.7476 16.2402 22.7357 16.3218 22.7289 16.3751C22.7256 16.4014 22.7234 16.4208 22.7222 16.4323C22.7217 16.4379 22.7217 16.4419 22.7216 16.4436V16.4429L22.7209 16.4423C22.7037 16.677 22.567 16.8862 22.3586 16.9955C22.15 17.1047 21.8998 17.0984 21.697 16.9788C20.257 16.1298 19.0901 15.8183 18.1564 15.8086C17.7805 15.8046 17.479 15.4964 17.4829 15.1205C17.4868 14.7445 17.795 14.443 18.1711 14.4469C19.1831 14.4575 20.308 14.737 21.558 15.3558C21.6048 15.1944 21.6619 15.0193 21.7336 14.8372C22.0496 14.0336 22.6559 13.0302 23.804 12.4237Z" fill="black"/>
<path d="M10.7771 39.9202C10.9185 40.1114 10.9502 40.3623 10.8602 40.5825C10.2018 42.1921 10.627 43.3467 11.1987 44.1257C11.4938 44.5279 11.8339 44.8349 12.1036 45.0419C12.223 45.1336 12.3267 45.2038 12.4028 45.2527H29.1574C29.5334 45.2527 29.8382 45.5576 29.8383 45.9335C29.8383 46.3096 29.5335 46.6144 29.1574 46.6144H12.214C12.102 46.6144 11.9916 46.5868 11.8928 46.5339L12.214 45.9335L11.8921 46.5339L11.8915 46.5333C11.891 46.533 11.8901 46.5329 11.8895 46.5326C11.8883 46.532 11.8871 46.5308 11.8855 46.53C11.8822 46.5282 11.8778 46.5261 11.8729 46.5233C11.863 46.5178 11.8498 46.51 11.8336 46.5007C11.8014 46.482 11.7568 46.4557 11.7026 46.4216C11.5944 46.3533 11.4457 46.2538 11.2745 46.1224C10.9338 45.8609 10.4924 45.4649 10.1009 44.9315C9.34333 43.8992 8.79519 42.369 9.46927 40.4136C9.46784 40.4114 9.46606 40.4092 9.46462 40.4069C9.33665 40.2063 9.16237 39.9155 8.96994 39.5459C8.58567 38.8078 8.125 37.7477 7.81768 36.4528C7.21845 33.9278 7.20571 30.5164 9.448 26.9089C9.3632 26.7288 9.25737 26.4904 9.15212 26.2081C8.91602 25.5749 8.66489 24.6903 8.65079 23.7487C8.64528 23.3728 8.94511 23.0635 9.321 23.0579C9.69698 23.0522 10.0062 23.3528 10.0118 23.7288C10.0228 24.4558 10.2211 25.1769 10.428 25.7321C10.5302 26.0062 10.6318 26.2317 10.7066 26.387C10.744 26.4645 10.7746 26.5243 10.7951 26.5632C10.8052 26.5824 10.8129 26.5964 10.8177 26.6051L10.8223 26.6144L10.823 26.6151V26.6157L10.8636 26.7002C10.9442 26.9045 10.9213 27.1378 10.7984 27.3245C8.58812 30.6818 8.59391 33.8254 9.14281 36.1383C9.41874 37.3009 9.83263 38.2554 10.1774 38.9176C10.3495 39.2481 10.5039 39.504 10.6129 39.6749C10.6673 39.7602 10.7101 39.8245 10.7386 39.8657C10.7528 39.8863 10.7633 39.9013 10.7698 39.9103C10.7729 39.9146 10.7753 39.9173 10.7765 39.9189L10.7778 39.9202H10.7771Z" fill="black"/>
<path d="M55.2942 29.6915C55.6546 29.5842 56.034 29.7892 56.1413 30.1496C57.0173 33.0915 56.5859 35.6955 55.9425 37.5525C55.6208 38.4808 55.2447 39.2275 54.9471 39.7447C54.8281 39.9515 54.7202 40.1217 54.634 40.2533C55.3061 42.2107 54.7603 43.7729 54.0156 44.8364C53.6288 45.3888 53.1918 45.8051 52.854 46.0824C52.6842 46.2218 52.5364 46.3285 52.4292 46.4016C52.3756 46.4381 52.3314 46.4667 52.2995 46.4867C52.2837 46.4966 52.2706 46.5048 52.261 46.5106C52.2563 46.5134 52.2521 46.5154 52.249 46.5173L52.243 46.5213H52.2423C52.2406 46.5189 52.2183 46.4814 51.8986 45.9335L52.2417 46.5219C52.1376 46.5826 52.0191 46.6143 51.8986 46.6143H44.0675C43.6915 46.6143 43.3866 46.3095 43.3866 45.9335C43.3868 45.5576 43.6915 45.2526 44.0675 45.2526H51.6958C51.7716 45.1998 51.8732 45.1255 51.9897 45.0299C52.2603 44.8077 52.6027 44.4802 52.8999 44.0558C53.4796 43.2281 53.9006 42.0268 53.2423 40.4175C53.1511 40.1942 53.1846 39.9392 53.3308 39.7473L53.3354 39.742C53.3396 39.7363 53.3463 39.7263 53.356 39.7127C53.3756 39.6855 53.4062 39.6428 53.4451 39.5851C53.5231 39.4695 53.6355 39.2943 53.7669 39.0658C54.0302 38.6083 54.3673 37.9399 54.6559 37.107C55.2331 35.4413 55.61 33.137 54.8361 30.5379C54.7289 30.1776 54.934 29.7989 55.2942 29.6915Z" fill="black"/>
<path d="M42.6359 15.0842C44.371 14.4495 45.8489 14.3927 47.0914 14.7105C48.3302 15.0274 49.2796 15.7024 49.9863 16.4419C50.6902 17.1784 51.1634 17.9887 51.4597 18.6068C51.5929 18.8844 51.6907 19.1276 51.7603 19.3129C53.4868 19.7729 54.5291 20.6433 55.0528 21.7344C55.2153 22.0734 55.0719 22.48 54.733 22.6427C54.3941 22.8051 53.9875 22.6624 53.8248 22.3235C53.4879 21.6216 52.7426 20.9139 51.0927 20.5509C50.8482 20.4971 50.6527 20.3137 50.5841 20.0729V20.0735L50.5681 20.0217C50.5554 19.9821 50.5348 19.9216 50.5063 19.8435C50.449 19.6867 50.3596 19.4606 50.2324 19.1952C49.9762 18.661 49.5772 17.9842 49.0023 17.3827C48.4302 16.7842 47.6938 16.2701 46.7536 16.0296C45.8171 15.7901 44.622 15.8081 43.104 16.3634C42.7509 16.4926 42.3596 16.3109 42.2304 15.9578C42.1012 15.6047 42.2829 15.2134 42.6359 15.0842Z" fill="black"/>
<path d="M1.0279 31.6916L0.937478 32.3665C1.02803 31.6917 1.02874 31.6916 1.02923 31.6916L1.0299 31.6923C1.03065 31.6924 1.03166 31.6922 1.03256 31.6923C1.03428 31.6925 1.03629 31.6926 1.03854 31.693C1.04328 31.6936 1.04948 31.6945 1.05649 31.6956C1.0706 31.6978 1.0893 31.7015 1.11234 31.7056C1.15869 31.7139 1.22333 31.7265 1.30383 31.7448C1.46484 31.7815 1.6918 31.8408 1.97405 31.9356C2.53907 32.1255 3.3255 32.4557 4.25197 33.0214C6.10846 34.155 8.50765 36.2231 10.8105 39.9682C11.0074 40.2885 10.9074 40.7081 10.5871 40.9051C10.2668 41.1019 9.84786 41.0019 9.65091 40.6817C7.45591 37.1118 5.2081 35.2006 3.54253 34.1837C2.77851 33.7172 2.13271 33.4365 1.66487 33.2701C1.91362 36.3882 3.03895 39.315 4.16753 41.5434C4.7845 42.7615 5.39681 43.7595 5.8537 44.4516C6.082 44.7974 6.27127 45.0665 6.40224 45.2475C6.46767 45.3379 6.51855 45.4065 6.5525 45.4516C6.56943 45.4741 6.58221 45.4908 6.5904 45.5015C6.59438 45.5066 6.59724 45.5104 6.59905 45.5128C6.59995 45.5139 6.60073 45.515 6.60104 45.5154C6.83234 45.8119 6.77975 46.2395 6.48336 46.4709C6.18699 46.7022 5.75928 46.6495 5.5279 46.3532L5.52724 46.3525V46.3519L5.52591 46.3505C5.52503 46.3494 5.524 46.3477 5.52258 46.3459C5.51961 46.342 5.51522 46.3368 5.50995 46.3299C5.49935 46.3161 5.48417 46.2959 5.46474 46.2701C5.42588 46.2185 5.36972 46.1435 5.29918 46.046C5.15782 45.8507 4.95735 45.5657 4.7174 45.2023C4.23772 44.4757 3.59772 43.4318 2.95277 42.1584C1.66766 39.621 0.338881 36.1243 0.256627 32.3811C0.252358 32.1824 0.335268 31.9917 0.483356 31.8592C0.631634 31.7266 0.830741 31.6652 1.0279 31.6916Z" fill="black"/>
<path d="M62.9722 31.6916C63.1692 31.6652 63.3678 31.7266 63.516 31.8592C63.6643 31.9917 63.7477 32.1823 63.7434 32.3811C63.6612 36.1211 62.3627 39.6158 61.1065 42.153C60.4761 43.4262 59.8505 44.4697 59.3817 45.1963C59.1472 45.5597 58.9514 45.8447 58.8132 46.04C58.7444 46.1374 58.6897 46.2125 58.6517 46.2641C58.6327 46.2899 58.6175 46.3101 58.6071 46.3239C58.602 46.3307 58.5981 46.3361 58.5952 46.3399C58.5938 46.3417 58.5927 46.3434 58.5918 46.3445L58.5898 46.3465C58.5869 46.3445 58.549 46.316 58.0486 45.9343L58.5898 46.3472C58.3618 46.646 57.9347 46.7034 57.6357 46.4755C57.3369 46.2476 57.279 45.8204 57.5067 45.5214H57.5074C57.5077 45.521 57.5079 45.5199 57.5087 45.5187C57.5105 45.5164 57.5134 45.5127 57.5174 45.5074C57.5254 45.4968 57.5381 45.48 57.5546 45.4576C57.5878 45.4125 57.6376 45.3438 57.7015 45.2534C57.8295 45.0725 58.0143 44.8034 58.2374 44.4576C58.684 43.7654 59.2824 42.7672 59.8857 41.5487C60.9892 39.32 62.0899 36.3913 62.3345 33.2701C61.8667 33.4365 61.2212 33.7173 60.4575 34.1836C58.792 35.2006 56.5441 37.1118 54.3491 40.6816C54.1522 41.0019 53.7333 41.1019 53.413 40.905C53.0927 40.7081 52.9926 40.2885 53.1896 39.9682C55.4924 36.2231 57.8916 34.1549 59.7481 33.0214C60.6746 32.4557 61.461 32.1254 62.026 31.9356C62.3083 31.8408 62.5352 31.7815 62.6962 31.7448C62.7766 31.7265 62.8407 31.7139 62.887 31.7056C62.9102 31.7014 62.9294 31.6978 62.9436 31.6956C62.9504 31.6945 62.9562 31.6936 62.9609 31.6929C62.9632 31.6926 62.9657 31.6925 62.9675 31.6923C62.9684 31.6922 62.9694 31.6924 62.9702 31.6923L62.9708 31.6916C62.9713 31.6915 62.972 31.6917 63.0626 32.3665L62.9722 31.6916Z" fill="black"/>
<path d="M10.6729 8.44279C12.7183 6.89484 15.7612 8.15538 16.1131 10.6961C18.6542 11.0477 19.9143 14.0907 18.3664 16.1363C19.9151 18.1818 18.6543 21.2247 16.1131 21.5764C15.7617 24.118 12.7186 25.3786 10.6729 23.8304C8.62722 25.3789 5.58339 24.118 5.23208 21.5764C2.69112 21.2243 1.4309 18.1817 2.97942 16.1363C1.43147 14.0909 2.69133 11.0481 5.23208 10.6961C5.58409 8.15538 8.62742 6.89488 10.6729 8.44279ZM14.7826 11.3125C14.882 9.36698 12.4837 8.37317 11.1782 9.81912C11.0491 9.96212 10.8656 10.0439 10.6729 10.0439C10.4803 10.0438 10.2967 9.96209 10.1676 9.81912C8.86203 8.37329 6.46396 9.36691 6.5632 11.3125C6.57297 11.5048 6.50057 11.6923 6.36439 11.8284C6.2282 11.9646 6.04077 12.037 5.84844 12.0272C3.90269 11.9279 2.9091 14.3262 4.35509 15.6316C4.49808 15.7607 4.57981 15.9443 4.57982 16.1369C4.57977 16.3295 4.49802 16.5132 4.35509 16.6423C2.90941 17.9479 3.90288 20.346 5.84844 20.2466C6.04071 20.2368 6.22821 20.3087 6.36439 20.4448C6.50061 20.581 6.57302 20.769 6.5632 20.9614C6.46401 22.907 8.86224 23.9001 10.1676 22.4541L10.2181 22.4036C10.3424 22.2921 10.5043 22.2294 10.6729 22.2294C10.8655 22.2294 11.0491 22.3112 11.1782 22.4541C12.4838 23.9001 14.8818 22.9069 14.7826 20.9614C14.7728 20.769 14.8452 20.581 14.9814 20.4448C15.1176 20.3087 15.3051 20.2368 15.4974 20.2466C17.4431 20.3459 18.436 17.9476 16.9901 16.6423C16.8472 16.5132 16.766 16.3295 16.766 16.1369C16.766 15.9444 16.8472 15.7607 16.9901 15.6316C18.4361 14.3261 17.443 11.9279 15.4974 12.0272C15.305 12.0371 15.1176 11.9646 14.9814 11.8284C14.8452 11.6923 14.7728 11.5048 14.7826 11.3125Z" fill="black"/>
<path d="M12.6941 16.1366C12.6941 15.0203 11.7892 14.1154 10.6729 14.1154C9.55657 14.1154 8.65165 15.0204 8.65159 16.1366C8.65159 17.253 9.55653 18.1579 10.6729 18.1579C11.7893 18.1579 12.6941 17.253 12.6941 16.1366ZM14.0558 16.1366C14.0558 18.0051 12.5413 19.5196 10.6729 19.5196C8.80449 19.5196 7.28989 18.005 7.28989 16.1366C7.28995 14.2683 8.80453 12.7537 10.6729 12.7537C12.5413 12.7537 14.0558 14.2683 14.0558 16.1366Z" fill="black"/>
<path d="M36.6116 35.1075C38.657 33.5588 41.7004 34.8191 42.0524 37.3602C44.5936 37.7118 45.8536 40.7547 44.3058 42.8003C45.8545 44.8459 44.5938 47.8894 42.0524 48.2411C41.7007 50.7823 38.6578 52.0426 36.6123 50.4945C34.5668 52.0427 31.5231 50.7824 31.1715 48.2411C28.6304 47.8891 27.3702 44.8457 28.9188 42.8003C27.3709 40.7549 28.6307 37.7122 31.1715 37.3602C31.5234 34.8193 34.5662 33.5597 36.6116 35.1075ZM40.722 37.9765C40.8213 36.0309 38.4232 35.0374 37.1176 36.4832C36.9885 36.6261 36.8049 36.7079 36.6123 36.7079C36.4196 36.7079 36.2361 36.6261 36.107 36.4832C34.8014 35.0373 32.4032 36.0309 32.5026 37.9765C32.5124 38.1689 32.44 38.3563 32.3038 38.4925C32.1676 38.6287 31.9802 38.7011 31.7878 38.6913C29.8421 38.5919 28.8485 40.9901 30.2945 42.2957C30.4374 42.4248 30.5192 42.6083 30.5192 42.801C30.5192 42.9936 30.4374 43.1772 30.2945 43.3063C28.8487 44.6119 29.8422 47.01 31.7878 46.9107C31.9802 46.9009 32.1676 46.9733 32.3038 47.1095C32.4399 47.2457 32.5124 47.4331 32.5026 47.6255C32.4033 49.5711 34.8016 50.5641 36.107 49.1181L36.1575 49.0676C36.2818 48.9561 36.4437 48.8941 36.6123 48.8941C36.8048 48.8941 36.9885 48.9752 37.1176 49.1181C38.4231 50.5641 40.8212 49.571 40.722 47.6255C40.7122 47.4331 40.7846 47.2457 40.9208 47.1095C41.057 46.9733 41.2444 46.9009 41.4367 46.9107C43.3824 47.01 44.3755 44.6118 42.9294 43.3063C42.7865 43.1772 42.7054 42.9935 42.7054 42.801C42.7054 42.6084 42.7866 42.4248 42.9294 42.2957C44.3754 40.9901 43.3824 38.592 41.4367 38.6913C41.2444 38.7011 41.057 38.6286 40.9208 38.4925C40.7846 38.3563 40.7122 38.1689 40.722 37.9765Z" fill="black"/>
<path d="M38.6334 42.8008C38.6333 41.6844 37.7284 40.7795 36.6121 40.7795C35.4958 40.7796 34.5909 41.6845 34.5908 42.8008C34.5908 43.9171 35.4958 44.822 36.6121 44.822C37.7285 44.822 38.6334 43.9172 38.6334 42.8008ZM39.9951 42.8008C39.9951 44.6692 38.4805 46.1837 36.6121 46.1837C34.7437 46.1837 33.2291 44.6692 33.2291 42.8008C33.2292 40.9324 34.7438 39.4179 36.6121 39.4178C38.4805 39.4178 39.995 40.9324 39.9951 42.8008Z" fill="black"/>
<path d="M56.5828 2.43244C57.6346 1.84784 59.0118 2.41721 59.3427 3.57407C60.4997 3.90473 61.0694 5.28212 60.485 6.33404C61.0696 7.38592 60.4997 8.76324 59.3427 9.09401C59.012 10.251 57.6347 10.8209 56.5828 10.2363C55.5309 10.8206 54.1535 10.251 53.8228 9.09401C52.666 8.76305 52.0965 7.38586 52.6812 6.33404C52.0968 5.28227 52.6661 3.90496 53.8228 3.57407C54.1537 2.4173 55.531 1.84807 56.5828 2.43244ZM58.0542 4.14853C58.0808 3.62765 57.438 3.36141 57.0881 3.74893C56.959 3.89178 56.7753 3.97367 56.5828 3.97367C56.3902 3.97361 56.2065 3.89185 56.0775 3.74893C55.7276 3.36154 55.0855 3.62749 55.112 4.14853C55.1218 4.34092 55.0494 4.52828 54.9132 4.66449C54.777 4.8007 54.5896 4.87311 54.3973 4.8633C53.8762 4.83682 53.6104 5.47907 53.9977 5.82872C54.1406 5.95777 54.2223 6.14148 54.2224 6.33404C54.2224 6.52659 54.1405 6.71027 53.9977 6.83936C53.6103 7.18916 53.8762 7.83191 54.3973 7.80545C54.5896 7.79564 54.777 7.86751 54.9132 8.00359C55.0494 8.13974 55.1218 8.32726 55.112 8.51955C55.0854 9.04069 55.7277 9.30698 56.0775 8.91981L56.1286 8.86928C56.2529 8.75789 56.4143 8.69513 56.5828 8.69508C56.7754 8.69507 56.959 8.77687 57.0881 8.91981C57.4379 9.30725 58.0808 9.04069 58.0542 8.51955C58.0444 8.32725 58.1162 8.13974 58.2523 8.00359C58.3885 7.86744 58.576 7.79571 58.7683 7.80545C59.2895 7.83205 59.5559 7.18904 59.1685 6.83936C59.0256 6.71028 58.9438 6.52663 58.9438 6.33404C58.9439 6.14149 59.0256 5.95777 59.1685 5.82872C59.5558 5.47885 59.2893 4.8367 58.7683 4.8633C58.576 4.87303 58.3885 4.80066 58.2523 4.66449C58.1162 4.52828 58.0443 4.34084 58.0542 4.14853Z" fill="black"/>
<path d="M17.6173 33.4097C18.8579 32.6527 20.5376 33.3485 20.88 34.7608C22.2923 35.1029 22.9875 36.7821 22.231 38.0227C22.9883 39.2634 22.2925 40.9432 20.88 41.2854C20.5378 42.6979 18.858 43.3936 17.6173 42.6364C16.3767 43.3929 14.6974 42.6977 14.3554 41.2854C12.9431 40.943 12.2473 39.2633 13.0043 38.0227C12.248 36.7822 12.9433 35.103 14.3554 34.7608C14.6976 33.3488 16.3768 32.6534 17.6173 33.4097ZM19.5808 35.3452C19.6208 34.5584 18.6512 34.1568 18.1233 34.7415C17.9943 34.8844 17.8106 34.9662 17.618 34.9662C17.4254 34.9662 17.2418 34.8844 17.1127 34.7415C16.5848 34.1568 15.6145 34.5584 15.6546 35.3452C15.6644 35.5376 15.5927 35.7256 15.4564 35.8618C15.3202 35.998 15.1322 36.0698 14.9398 36.06C14.153 36.0199 13.7513 36.9901 14.3361 37.5181C14.479 37.6472 14.5608 37.8308 14.5608 38.0234C14.5608 38.216 14.4791 38.3997 14.3361 38.5287C13.7514 39.0566 14.153 40.0262 14.9398 39.9862C15.1322 39.9763 15.3202 40.0487 15.4564 40.185C15.5925 40.3211 15.6643 40.5087 15.6546 40.7009C15.6144 41.4878 16.5846 41.89 17.1127 41.3053L17.1632 41.2541C17.2875 41.1427 17.4494 41.0806 17.618 41.0806C17.8106 41.0806 17.9943 41.1623 18.1233 41.3053C18.6512 41.8898 19.621 41.4878 19.5808 40.7009C19.571 40.5086 19.6434 40.3211 19.7796 40.185C19.9157 40.0488 20.1032 39.9764 20.2955 39.9862C21.0824 40.0264 21.4844 39.0568 20.8999 38.5287C20.757 38.3997 20.6752 38.216 20.6752 38.0234C20.6752 37.8308 20.7569 37.6472 20.8999 37.5181C21.4846 36.9902 21.0825 36.0198 20.2955 36.06C20.1033 36.0697 19.9157 35.9979 19.7796 35.8618C19.6434 35.7256 19.5709 35.5376 19.5808 35.3452Z" fill="black"/>
<path d="M59.1297 12.4116C59.4944 12.3207 59.8638 12.5429 59.9548 12.9076C60.0458 13.2724 59.8242 13.6423 59.4595 13.7334C57.6202 14.1923 55.7205 15.7675 54.2288 17.3311C53.4963 18.0989 52.8865 18.8372 52.4602 19.3837C52.2473 19.6565 52.0808 19.881 51.9681 20.0359C51.912 20.1132 51.8694 20.1733 51.8411 20.2134C51.827 20.2335 51.816 20.2489 51.8092 20.2587C51.8059 20.2634 51.8034 20.2671 51.8019 20.2693C51.8013 20.2702 51.8009 20.2709 51.8006 20.2713L51.758 20.3271C51.5351 20.5904 51.1445 20.6474 50.8538 20.4481C50.5437 20.2355 50.4643 19.8115 50.6769 19.5013L51.0399 19.75C50.7065 19.5213 50.6797 19.5029 50.6776 19.5013V19.5007L50.6782 19.4993C50.6789 19.4983 50.6804 19.497 50.6816 19.4954C50.6839 19.492 50.6874 19.4874 50.6915 19.4814C50.7 19.4692 50.7122 19.4515 50.7281 19.4289C50.76 19.3836 50.8068 19.3184 50.8671 19.2354C50.9877 19.0694 51.1629 18.8323 51.3864 18.5459C51.8327 17.9739 52.4722 17.2 53.2434 16.3916C54.7591 14.8029 56.8876 12.9709 59.1297 12.4116Z" fill="black"/>
<path d="M1.26305 23.1483C1.48226 22.8428 1.90767 22.7728 2.21318 22.992L2.21384 22.9927L2.21517 22.9934C2.21619 22.9941 2.21754 22.9955 2.21916 22.9967C2.22238 22.999 2.22694 23.002 2.23246 23.006C2.24372 23.0142 2.25995 23.026 2.28033 23.0412C2.32107 23.0716 2.37922 23.1161 2.45321 23.1736C2.60135 23.2886 2.8123 23.457 3.06823 23.6749C3.5796 24.1102 4.27462 24.7455 5.01305 25.5486C6.48159 27.1457 8.16402 29.4515 8.87874 32.2081C8.97302 32.572 8.7546 32.9435 8.39071 33.0379C8.02679 33.1323 7.65538 32.9138 7.56092 32.5499C6.92544 30.0989 5.40596 27.9878 4.01039 26.4701C3.31675 25.7158 2.66357 25.1187 2.18525 24.7115C1.94645 24.5081 1.75221 24.3523 1.61877 24.2487C1.55204 24.1969 1.50042 24.1583 1.4665 24.133C1.4498 24.1205 1.43723 24.1116 1.42927 24.1057C1.4253 24.1028 1.42225 24.1003 1.42063 24.0991L1.4193 24.0984L1.36478 24.0552C1.10607 23.8267 1.05751 23.4347 1.26305 23.1483Z" fill="black"/>
<path d="M42.0201 27.2929C42.204 27.1708 42.4381 27.1443 42.6471 27.227C42.8858 27.3216 43.0513 27.5425 43.0746 27.7982V27.8015C43.0747 27.8032 43.075 27.8058 43.0753 27.8088C43.0758 27.815 43.0763 27.8239 43.0773 27.8354C43.0793 27.859 43.0823 27.8937 43.0859 27.9378C43.093 28.0259 43.103 28.1532 43.1138 28.3115C43.1355 28.6279 43.1616 29.07 43.179 29.5728C43.2026 30.2575 43.2095 31.0749 43.165 31.8487C43.2524 31.8261 43.3438 31.801 43.439 31.7769C44.1469 31.5977 45.064 31.381 45.8705 31.2403C46.0969 31.2008 46.3279 31.2785 46.4848 31.4465C46.6418 31.6144 46.7032 31.8502 46.6484 32.0734V32.0748C46.6482 32.0754 46.648 32.0764 46.6477 32.0774C46.6472 32.0797 46.6461 32.0832 46.6451 32.0874C46.643 32.0957 46.6404 32.1078 46.6364 32.1233C46.6285 32.1545 46.6165 32.2 46.6012 32.2583C46.5706 32.3752 46.5257 32.5446 46.4662 32.7556C46.3473 33.1774 46.171 33.7688 45.9423 34.4504C45.4873 35.8066 44.8134 37.5505 43.9489 39.0276C43.759 39.352 43.3419 39.4614 43.0174 39.2716C42.693 39.0817 42.5837 38.6646 42.7734 38.3401C43.5688 36.9811 44.2079 35.3385 44.6511 34.0176C44.8046 33.56 44.9314 33.1437 45.034 32.7969C44.5926 32.8946 44.1552 33.0006 43.7727 33.0974C43.426 33.1851 43.1274 33.2648 42.9157 33.3221C42.8099 33.3508 42.7256 33.3734 42.6683 33.3893C42.6398 33.3972 42.6178 33.4038 42.6032 33.4079C42.5961 33.4099 42.5908 33.4115 42.5872 33.4125C42.5856 33.413 42.5841 33.413 42.5832 33.4132L42.5819 33.4139C42.3602 33.4767 42.1218 33.4232 41.9483 33.2716C41.7748 33.1199 41.6896 32.8906 41.7222 32.6625C41.8495 31.7739 41.8518 30.5988 41.8179 29.6193C41.8151 29.538 41.8105 29.4584 41.8073 29.3806C40.5266 30.7321 39.4815 32.242 38.7116 33.5169C38.2289 34.3162 37.8582 35.0154 37.6092 35.5136C37.4847 35.7625 37.3909 35.9612 37.3286 36.0961C37.2975 36.1633 37.2739 36.215 37.2588 36.249C37.2513 36.2657 37.2457 36.2782 37.2421 36.2862C37.2405 36.29 37.2396 36.2931 37.2388 36.2949L37.2375 36.2969C37.0887 36.6421 36.6885 36.8013 36.3432 36.6526C35.9979 36.5038 35.8388 36.1036 35.9875 35.7583L36.6125 36.0276L35.9875 35.7576L35.9882 35.7563C35.9885 35.7554 35.9889 35.7543 35.9895 35.753C35.9908 35.75 35.9925 35.7456 35.9948 35.7403C35.9995 35.7296 36.0066 35.7142 36.0154 35.6945C36.033 35.655 36.0587 35.5975 36.0925 35.5242C36.1602 35.3778 36.26 35.1668 36.3911 34.9046C36.6533 34.3801 37.0414 33.6483 37.546 32.8128C38.5514 31.1481 40.0384 29.0423 41.9443 27.3507L42.0201 27.2929Z" fill="black"/>
<path d="M23.3047 40.8825C23.4711 40.5454 23.8791 40.4071 24.2163 40.5733H24.217L24.2303 40.5799C24.2381 40.5839 24.2492 40.5895 24.2628 40.5965C24.2901 40.6106 24.3288 40.6313 24.3779 40.6577C24.4759 40.7106 24.6155 40.7882 24.7881 40.8911C25.1334 41.097 25.6132 41.4041 26.1598 41.8146C27.2498 42.6333 28.6239 43.8762 29.7276 45.5613C29.9334 45.8758 29.8452 46.2975 29.5308 46.5035C29.2162 46.7095 28.794 46.6219 28.588 46.3073C27.5964 44.7933 26.3494 43.6604 25.342 42.9037C24.8398 42.5266 24.4016 42.2456 24.0913 42.0606C23.9363 41.9682 23.8132 41.9003 23.7309 41.8559C23.6899 41.8337 23.659 41.8175 23.6392 41.8073C23.6293 41.8022 23.6221 41.7981 23.6179 41.796C23.6159 41.795 23.6146 41.7943 23.6139 41.794L23.5534 41.7601C23.2609 41.5771 23.1489 41.1987 23.3047 40.8825Z" fill="black"/>
<path d="M26.4945 1.68858C26.6367 1.34046 27.0341 1.17346 27.3822 1.31557L27.1761 1.82089C27.3796 1.32238 27.3825 1.31554 27.3828 1.31557L27.3835 1.31624C27.384 1.31645 27.3848 1.31663 27.3855 1.3169C27.3868 1.31744 27.3883 1.31814 27.3902 1.3189C27.3939 1.32046 27.3989 1.32236 27.4048 1.32488C27.4169 1.33004 27.4338 1.33758 27.4546 1.34682C27.4966 1.36541 27.5562 1.39268 27.6308 1.4286C27.7801 1.50045 27.9916 1.60805 28.2519 1.7564C28.7726 2.05316 29.4906 2.51333 30.2984 3.17461C31.915 4.49813 33.8923 6.62811 35.3702 9.86344C35.5264 10.2055 35.3758 10.6095 35.0338 10.7657C34.6918 10.9218 34.2877 10.7712 34.1315 10.4293C32.7531 7.41181 30.9176 5.44124 29.4354 4.22781C28.6938 3.62071 28.0405 3.203 27.5777 2.93924C27.3465 2.80752 27.1631 2.71441 27.0404 2.65533C26.9791 2.62581 26.9328 2.60449 26.9035 2.5915C26.8888 2.58502 26.8782 2.58077 26.8722 2.5782L26.8675 2.57621V2.57555H26.8669C26.5193 2.43314 26.3525 2.03644 26.4945 1.68858Z" fill="black"/>
<path d="M45.2774 4.01643V1.14875C45.2774 0.772723 45.5822 0.467896 45.9582 0.467896C46.3342 0.467896 46.6391 0.772723 46.6391 1.14875V4.01643C46.6389 4.39231 46.3341 4.69728 45.9582 4.69728C45.5823 4.69728 45.2775 4.39231 45.2774 4.01643Z" fill="black"/>
<path d="M47.3923 1.90155C47.7682 1.90172 48.0731 2.20648 48.0731 2.5824C48.0731 2.95832 47.7682 3.26308 47.3923 3.26325H44.5246C44.1486 3.26325 43.8438 2.95843 43.8438 2.5824C43.8438 2.20638 44.1486 1.90155 44.5246 1.90155H47.3923Z" fill="black"/>
<path d="M50.9073 37.7381C50.9073 38.2559 50.4876 38.6756 49.9698 38.6756C49.4521 38.6756 49.0323 38.2559 49.0323 37.7381C49.0323 37.2203 49.4521 36.8006 49.9698 36.8006C50.4876 36.8006 50.9073 37.2203 50.9073 37.7381Z" fill="black"/>
<path d="M12.6472 31.9108C12.6472 32.4285 12.2275 32.8483 11.7097 32.8483C11.192 32.8483 10.7722 32.4285 10.7722 31.9108C10.7722 31.393 11.192 30.9733 11.7097 30.9733C12.2275 30.9733 12.6472 31.393 12.6472 31.9108Z" fill="black"/>
<path d="M25.4006 19.4391C25.4006 19.9569 24.9809 20.3766 24.4631 20.3766C23.9453 20.3766 23.5256 19.9569 23.5256 19.4391C23.5256 18.9214 23.9453 18.5016 24.4631 18.5016C24.9809 18.5016 25.4006 18.9214 25.4006 19.4391Z" fill="black"/>
<path d="M23.9607 23.2206C24.7889 22.0108 26.6832 22.6256 26.6422 24.0909L26.6429 24.0916L26.5963 25.7591L28.1694 25.1999C29.5521 24.7081 30.7191 26.3206 29.8277 27.4819L29.827 27.4825L28.8091 28.8037L30.4101 29.2757C31.8161 29.6903 31.8161 31.6824 30.4101 32.0969L28.8091 32.5683L29.827 33.8908C30.7211 35.0526 29.5502 36.6638 28.1694 36.1727L26.5963 35.6128L26.6429 37.2804C26.6848 38.7486 24.7894 39.3607 23.9613 38.1541L23.9607 38.1534L23.0172 36.7757L22.3503 37.7505C22.3266 37.785 22.3001 37.8179 22.2705 37.8475L22.2692 37.8482C22.0035 38.1143 21.5725 38.1151 21.3064 37.8495C21.0702 37.6136 21.0437 37.2473 21.2266 36.9819L22.4554 35.1866L22.5072 35.1208C22.6355 34.9755 22.8207 34.8902 23.0172 34.8901C23.2418 34.8901 23.4521 35.0013 23.579 35.1866L25.0837 37.3834C25.1073 37.4179 25.1265 37.4255 25.1369 37.4287C25.1528 37.4335 25.1781 37.4349 25.2073 37.4253C25.2367 37.4158 25.256 37.3998 25.2659 37.3868C25.2721 37.3784 25.283 37.3615 25.2818 37.3196V37.319L25.208 34.6574C25.2019 34.4329 25.3069 34.2196 25.4886 34.0876C25.6703 33.9557 25.9054 33.9219 26.1169 33.9971L28.6256 34.8894C28.6649 34.9034 28.6847 34.8989 28.6947 34.8954C28.7103 34.89 28.7318 34.8765 28.7499 34.8515C28.7681 34.8265 28.7742 34.8015 28.7745 34.785C28.7747 34.7744 28.7732 34.7541 28.7479 34.7212L27.1242 32.6115C26.9873 32.4335 26.9471 32.1994 27.0165 31.9858C27.0859 31.7723 27.2559 31.6065 27.4713 31.543L30.0252 30.7904C30.0651 30.7786 30.0782 30.7632 30.0843 30.7545C30.0938 30.7408 30.103 30.7169 30.103 30.686C30.1029 30.6553 30.0938 30.6318 30.0843 30.6182C30.0782 30.6094 30.0652 30.5934 30.0252 30.5816L27.4713 29.8296C27.2559 29.7661 27.0853 29.6003 27.0159 29.3868C26.9465 29.1732 26.9873 28.9391 27.1242 28.7611L28.7479 26.6521C28.7733 26.6188 28.7747 26.5985 28.7745 26.5876C28.7742 26.5708 28.7674 26.5461 28.7492 26.5211C28.7312 26.4963 28.7102 26.4826 28.6947 26.4772C28.6847 26.4737 28.6649 26.4685 28.6256 26.4825L26.1169 27.3755C25.9053 27.4507 25.6703 27.4164 25.4886 27.2844C25.3069 27.1524 25.2018 26.9391 25.208 26.7146L25.2818 24.0537V24.053C25.283 24.0115 25.2722 23.9949 25.2659 23.9865C25.256 23.9734 25.2367 23.9575 25.2073 23.9479C25.178 23.9384 25.1526 23.9398 25.1369 23.9446C25.1267 23.9477 25.108 23.9553 25.0843 23.9898L23.579 26.186C23.4521 26.3712 23.2418 26.4819 23.0172 26.4819C22.7927 26.4818 22.5829 26.3711 22.456 26.186L20.9507 23.9898C20.9271 23.9554 20.9084 23.9478 20.8982 23.9446C20.8824 23.9398 20.8571 23.9384 20.8277 23.9479C20.7983 23.9575 20.7791 23.9734 20.7692 23.9865C20.766 23.9907 20.7612 23.9967 20.7579 24.0071L20.7532 24.053V24.0537L20.827 26.7146C20.8332 26.9391 20.7281 27.1524 20.5464 27.2844C20.3648 27.4164 20.1297 27.4507 19.9181 27.3755L17.4095 26.4825C17.3701 26.4685 17.3503 26.4737 17.3403 26.4772C17.3248 26.4826 17.3033 26.4961 17.2851 26.5211C17.267 26.5461 17.2609 26.5708 17.2605 26.5876C17.2603 26.5985 17.2613 26.619 17.2865 26.6521H17.2871L18.9108 28.7611C19.0477 28.939 19.0879 29.1732 19.0185 29.3868C18.9491 29.6002 18.7791 29.7661 18.5637 29.8296L16.0099 30.5816C15.9698 30.5934 15.9568 30.6094 15.9507 30.6182C15.9413 30.6318 15.9321 30.6552 15.9321 30.686C15.9321 30.7169 15.9412 30.7408 15.9507 30.7545C15.9568 30.7632 15.9699 30.7786 16.0099 30.7904L18.5637 31.543C18.7791 31.6065 18.9491 31.7723 19.0185 31.9858C19.0879 32.1994 19.0477 32.4335 18.9108 32.6115L17.6056 34.3077C17.3763 34.6056 16.9488 34.6612 16.6508 34.432C16.353 34.2027 16.2973 33.7752 16.5265 33.4772L17.2253 32.5683L15.6249 32.0969C14.2188 31.6824 14.2189 29.6902 15.6249 29.2757L17.2253 28.8037L16.208 27.4825L16.2073 27.4819C15.3159 26.3206 16.4829 24.708 17.8656 25.1999L19.4374 25.7591L19.3922 24.0916V24.0909C19.3511 22.6256 21.2454 22.011 22.0737 23.2206L22.0744 23.2199L23.0172 24.5962L23.9607 23.2199V23.2206Z" fill="black"/>
<path d="M23.955 30.9809C23.955 31.4987 23.5353 31.9184 23.0175 31.9184C22.4997 31.9184 22.08 31.4987 22.08 30.9809C22.08 30.4631 22.4997 30.0434 23.0175 30.0434C23.5353 30.0434 23.955 30.4631 23.955 30.9809Z" fill="black"/>
</g>
<defs>
<clipPath id="clip0_6_319">
<rect width="64" height="64" fill="white"/>
</clipPath>
</defs>
</svg>
