<svg width="64" height="64" viewBox="0 0 64 64" fill="none" xmlns="http://www.w3.org/2000/svg">
<path d="M58.129 60.0645H5.87097V58.129H3.93549V62H60.0645V58.129H58.129V60.0645Z" fill="black"/>
<path d="M62 54.2581H2V56.1935H62V54.2581Z" fill="black"/>
<path d="M15.5484 21.3548C15.5484 17.0861 19.0216 13.6129 23.2903 13.6129C27.5591 13.6129 31.0323 17.0861 31.0323 21.3548V32H32.9678V21.3548C32.9678 17.0861 36.441 13.6129 40.7097 13.6129C44.9784 13.6129 48.4516 17.0861 48.4516 21.3548V22.3226H50.3871V21.3548C50.3871 16.0187 46.0458 11.6774 40.7097 11.6774C37.5423 11.6774 34.7339 13.2142 32.9678 15.5726V7.80645C32.9678 5.67161 34.7039 3.93548 36.8387 3.93548C38.9736 3.93548 40.7097 5.67161 40.7097 7.80645H42.6452C42.6452 4.60419 40.041 2 36.8387 2C34.82 2 33.0413 3.03645 32 4.60323C30.9587 3.03645 29.18 2 27.1613 2C23.9591 2 21.3549 4.60419 21.3549 7.80645H23.2903C23.2903 5.67161 25.0265 3.93548 27.1613 3.93548C29.2961 3.93548 31.0323 5.67161 31.0323 7.80645V15.5726C29.2661 13.2142 26.4578 11.6774 23.2903 11.6774C17.9542 11.6774 13.6129 16.0187 13.6129 21.3548V22.3226H15.5484V21.3548Z" fill="black"/>
<path d="M15.5484 24.2581H13.6129V26.1935H15.5484V24.2581Z" fill="black"/>
<path d="M15.5484 28.129H13.6129V30.0645H15.5484V28.129Z" fill="black"/>
<path d="M50.3871 24.2581H48.4516V26.1935H50.3871V24.2581Z" fill="black"/>
<path d="M50.3871 28.129H48.4516V30.0645H50.3871V28.129Z" fill="black"/>
<path d="M18.4516 45.5484H25.2258V52.3226H27.1613V45.5484H29.0968V52.3226H31.0323V45.5484H32.9677V52.3226H34.9032V45.5484H36.8387V52.3226H38.7742V45.5484H45.5484C48.9539 45.5484 51.7729 43.0197 52.2452 39.7419H56.1936V38.7742C56.1936 36.1061 54.0229 33.9355 51.3548 33.9355H12.6452C9.9771 33.9355 7.80645 36.1061 7.80645 38.7742V39.7419H11.7548C12.2271 43.0197 15.0461 45.5484 18.4516 45.5484ZM45.5484 43.6129H18.4516C16.1155 43.6129 14.1606 41.9474 13.7106 39.7419H50.2894C49.8394 41.9474 47.8845 43.6129 45.5484 43.6129ZM12.6452 35.871H51.3548C52.6168 35.871 53.6929 36.68 54.0926 37.8065H9.90742C10.3071 36.68 11.3832 35.871 12.6452 35.871Z" fill="black"/>
<path d="M46.5161 20.3871H44.5806V22.3226H46.5161V20.3871Z" fill="black"/>
<path d="M46.5161 24.2581H44.5806V28.129H46.5161V24.2581Z" fill="black"/>
<path d="M19.4194 24.2581H17.4839V26.1935H19.4194V24.2581Z" fill="black"/>
<path d="M19.4194 20.3871H17.4839V22.3226H19.4194V20.3871Z" fill="black"/>
<path d="M56.1935 41.6773H54.2581V43.6128H56.1935V41.6773Z" fill="black"/>
<path d="M56.1935 45.5483H54.2581V47.4838H56.1935V45.5483Z" fill="black"/>
<path d="M9.74194 41.6773H7.80645V43.6128H9.74194V41.6773Z" fill="black"/>
<path d="M9.74194 45.5483H7.80645V47.4838H9.74194V45.5483Z" fill="black"/>
</svg>
