<svg width="64" height="64" viewBox="0 0 64 64" fill="none" xmlns="http://www.w3.org/2000/svg">
<g clip-path="url(#clip0_6_219)">
<path d="M57.6 9.59998C56.0216 9.59447 54.4987 10.1823 53.3333 11.2469C52.1651 10.187 50.6441 9.59985 49.0667 9.59985C47.4892 9.59985 45.9683 10.187 44.8 11.2469C43.6317 10.187 42.1108 9.59985 40.5333 9.59985C38.9559 9.59985 37.4349 10.187 36.2667 11.2469C35.0984 10.187 33.5774 9.59985 32 9.59985C30.4226 9.59985 28.9016 10.187 27.7333 11.2469C26.5651 10.187 25.0441 9.59985 23.4667 9.59985C21.8892 9.59985 20.3683 10.187 19.2 11.2469C18.0317 10.187 16.5108 9.59985 14.9333 9.59985C13.3559 9.59985 11.8349 10.187 10.6667 11.2469C9.50131 10.1823 7.97844 9.59447 6.40001 9.59998C4.70314 9.60168 3.07626 10.2765 1.8764 11.4764C0.67653 12.6762 0.00170193 14.3031 7.60564e-06 16C-0.00550514 17.5784 0.582324 19.1013 1.64694 20.2666C0.587016 21.4349 -0.00012207 22.9559 -0.00012207 24.5333C-0.00012207 26.1108 0.587016 27.6317 1.64694 28.8C0.587016 29.9683 -0.00012207 31.4892 -0.00012207 33.0667C-0.00012207 34.6441 0.587016 36.165 1.64694 37.3333C0.582324 38.4987 -0.00550514 40.0216 7.60564e-06 41.6C0.0028128 43.111 0.5396 44.5723 1.51552 45.7259C2.49145 46.8794 3.8437 47.6509 5.33334 47.904V51.2C5.33334 52.0487 5.67048 52.8626 6.2706 53.4627C6.87072 54.0628 7.68465 54.4 8.53334 54.4H55.4667C56.3154 54.4 57.1293 54.0628 57.7294 53.4627C58.3295 52.8626 58.6667 52.0487 58.6667 51.2V47.904C60.1563 47.6509 61.5086 46.8794 62.4845 45.7259C63.4604 44.5723 63.9972 43.111 64 41.6C64.0055 40.0216 63.4177 38.4987 62.3531 37.3333C63.413 36.165 64.0001 34.6441 64.0001 33.0667C64.0001 31.4892 63.413 29.9683 62.3531 28.8C63.413 27.6317 64.0001 26.1108 64.0001 24.5333C64.0001 22.9559 63.413 21.4349 62.3531 20.2666C63.4177 19.1013 64.0055 17.5784 64 16C63.9983 14.3031 63.3235 12.6762 62.1236 11.4764C60.9238 10.2765 59.2969 9.60168 57.6 9.59998ZM56.5333 51.2C56.5333 51.4829 56.421 51.7542 56.2209 51.9542C56.0209 52.1543 55.7496 52.2667 55.4667 52.2667H8.53334C8.25044 52.2667 7.97913 52.1543 7.77909 51.9542C7.57906 51.7542 7.46667 51.4829 7.46667 51.2V47.9019C8.66036 47.7049 9.77164 47.167 10.6667 46.3531C11.8349 47.413 13.3559 48.0001 14.9333 48.0001C16.5108 48.0001 18.0317 47.413 19.2 46.3531C20.3683 47.413 21.8892 48.0001 23.4667 48.0001C25.0441 48.0001 26.5651 47.413 27.7333 46.3531C28.9016 47.413 30.4226 48.0001 32 48.0001C33.5774 48.0001 35.0984 47.413 36.2667 46.3531C37.4349 47.413 38.9559 48.0001 40.5333 48.0001C42.1108 48.0001 43.6317 47.413 44.8 46.3531C45.9683 47.413 47.4892 48.0001 49.0667 48.0001C50.6441 48.0001 52.1651 47.413 53.3333 46.3531C54.2284 47.167 55.3397 47.7049 56.5333 47.9019V51.2ZM60.1333 21.12C60.6704 21.5115 61.1074 22.0243 61.4087 22.6168C61.7099 23.2092 61.867 23.8644 61.867 24.5291C61.867 25.1937 61.7099 25.8489 61.4087 26.4413C61.1074 27.0338 60.6704 27.5466 60.1333 27.9381C59.9992 28.0373 59.8903 28.1666 59.8152 28.3155C59.7401 28.4644 59.701 28.6289 59.701 28.7957C59.701 28.9625 59.7401 29.127 59.8152 29.2759C59.8903 29.4249 59.9992 29.5541 60.1333 29.6533C60.6704 30.0448 61.1074 30.5577 61.4087 31.1501C61.7099 31.7425 61.867 32.3978 61.867 33.0624C61.867 33.727 61.7099 34.3822 61.4087 34.9747C61.1074 35.5671 60.6704 36.0799 60.1333 36.4715C59.9992 36.5706 59.8903 36.6999 59.8152 36.8488C59.7401 36.9978 59.701 37.1622 59.701 37.3291C59.701 37.4959 59.7401 37.6603 59.8152 37.8093C59.8903 37.9582 59.9992 38.0875 60.1333 38.1867C60.6717 38.5779 61.1095 39.0913 61.4109 39.6847C61.7122 40.2781 61.8684 40.9345 61.8667 41.6C61.8667 42.7316 61.4172 43.8168 60.617 44.617C59.8168 45.4171 58.7316 45.8667 57.6 45.8667C56.9345 45.8684 56.2781 45.7122 55.6847 45.4108C55.0913 45.1095 54.5779 44.6717 54.1867 44.1333C54.0875 43.9992 53.9582 43.8902 53.8093 43.8151C53.6604 43.74 53.4959 43.7009 53.3291 43.7009C53.1623 43.7009 52.9978 43.74 52.8489 43.8151C52.6999 43.8902 52.5707 43.9992 52.4715 44.1333C52.08 44.6704 51.5671 45.1074 50.9747 45.4086C50.3823 45.7099 49.727 45.8669 49.0624 45.8669C48.3978 45.8669 47.7426 45.7099 47.1501 45.4086C46.5577 45.1074 46.0448 44.6704 45.6533 44.1333C45.5497 44.0058 45.419 43.903 45.2706 43.8324C45.1223 43.7618 44.96 43.7252 44.7957 43.7252C44.6314 43.7252 44.4692 43.7618 44.3209 43.8324C44.1725 43.903 44.0418 44.0058 43.9381 44.1333C43.5466 44.6704 43.0338 45.1074 42.4414 45.4086C41.8489 45.7099 41.1937 45.8669 40.5291 45.8669C39.8644 45.8669 39.2092 45.7099 38.6168 45.4086C38.0244 45.1074 37.5115 44.6704 37.12 44.1333C37.0164 44.0058 36.8856 43.903 36.7373 43.8324C36.5889 43.7618 36.4267 43.7252 36.2624 43.7252C36.0981 43.7252 35.9359 43.7618 35.7875 43.8324C35.6392 43.903 35.5084 44.0058 35.4048 44.1333C35.0133 44.6704 34.5004 45.1074 33.908 45.4086C33.3156 45.7099 32.6604 45.8669 31.9957 45.8669C31.3311 45.8669 30.6759 45.7099 30.0835 45.4086C29.491 45.1074 28.9782 44.6704 28.5867 44.1333C28.4831 44.0058 28.3523 43.903 28.204 43.8324C28.0556 43.7618 27.8934 43.7252 27.7291 43.7252C27.5648 43.7252 27.4025 43.7618 27.2542 43.8324C27.1058 43.903 26.9751 44.0058 26.8715 44.1333C26.48 44.6704 25.9671 45.1074 25.3747 45.4086C24.7823 45.7099 24.127 45.8669 23.4624 45.8669C22.7978 45.8669 22.1426 45.7099 21.5501 45.4086C20.9577 45.1074 20.4448 44.6704 20.0533 44.1333C19.9497 44.0058 19.819 43.903 19.6706 43.8324C19.5223 43.7618 19.36 43.7252 19.1957 43.7252C19.0314 43.7252 18.8692 43.7618 18.7209 43.8324C18.5725 43.903 18.4418 44.0058 18.3381 44.1333C17.9466 44.6704 17.4338 45.1074 16.8414 45.4086C16.2489 45.7099 15.5937 45.8669 14.9291 45.8669C14.2644 45.8669 13.6092 45.7099 13.0168 45.4086C12.4244 45.1074 11.9115 44.6704 11.52 44.1333C11.4164 44.0058 11.2856 43.903 11.1373 43.8324C10.9889 43.7618 10.8267 43.7252 10.6624 43.7252C10.4981 43.7252 10.3359 43.7618 10.1875 43.8324C10.0392 43.903 9.90842 44.0058 9.80481 44.1333C9.41442 44.6705 8.90238 45.1076 8.31058 45.4089C7.71879 45.7102 7.06407 45.867 6.40001 45.8667C5.26842 45.8667 4.18317 45.4171 3.38302 44.617C2.58286 43.8168 2.13334 42.7316 2.13334 41.6C2.1316 40.9345 2.28782 40.2781 2.58914 39.6847C2.89047 39.0913 3.32831 38.5779 3.86667 38.1867C4.00078 38.0875 4.10976 37.9582 4.18486 37.8093C4.25995 37.6603 4.29907 37.4959 4.29907 37.3291C4.29907 37.1622 4.25995 36.9978 4.18486 36.8488C4.10976 36.6999 4.00078 36.5706 3.86667 36.4715C3.32959 36.0799 2.89262 35.5671 2.59135 34.9747C2.29008 34.3822 2.13305 33.727 2.13305 33.0624C2.13305 32.3978 2.29008 31.7425 2.59135 31.1501C2.89262 30.5577 3.32959 30.0448 3.86667 29.6533C4.00078 29.5541 4.10976 29.4249 4.18486 29.2759C4.25995 29.127 4.29907 28.9625 4.29907 28.7957C4.29907 28.6289 4.25995 28.4644 4.18486 28.3155C4.10976 28.1666 4.00078 28.0373 3.86667 27.9381C3.32959 27.5466 2.89262 27.0338 2.59135 26.4413C2.29008 25.8489 2.13305 25.1937 2.13305 24.5291C2.13305 23.8644 2.29008 23.2092 2.59135 22.6168C2.89262 22.0243 3.32959 21.5115 3.86667 21.12C4.00078 21.0208 4.10976 20.8915 4.18486 20.7426C4.25995 20.5937 4.29907 20.4292 4.29907 20.2624C4.29907 20.0956 4.25995 19.9311 4.18486 19.7822C4.10976 19.6332 4.00078 19.504 3.86667 19.4048C3.32948 19.0144 2.89236 18.5024 2.59109 17.9106C2.28981 17.3188 2.13295 16.664 2.13334 16C2.13334 14.8684 2.58286 13.7831 3.38302 12.983C4.18317 12.1828 5.26842 11.7333 6.40001 11.7333C7.06551 11.7316 7.72193 11.8878 8.31532 12.1891C8.9087 12.4904 9.42211 12.9283 9.81334 13.4666C9.91696 13.5942 10.0477 13.697 10.1961 13.7676C10.3444 13.8382 10.5066 13.8748 10.6709 13.8748C10.8352 13.8748 10.9975 13.8382 11.1458 13.7676C11.2942 13.697 11.4249 13.5942 11.5285 13.4666C11.92 12.9296 12.4329 12.4926 13.0253 12.1913C13.6178 11.8901 14.273 11.733 14.9376 11.733C15.6022 11.733 16.2575 11.8901 16.8499 12.1913C17.4423 12.4926 17.9552 12.9296 18.3467 13.4666C18.4503 13.5942 18.581 13.697 18.7294 13.7676C18.8777 13.8382 19.04 13.8748 19.2043 13.8748C19.3686 13.8748 19.5308 13.8382 19.6792 13.7676C19.8275 13.697 19.9583 13.5942 20.0619 13.4666C20.4534 12.9296 20.9662 12.4926 21.5587 12.1913C22.1511 11.8901 22.8063 11.733 23.4709 11.733C24.1356 11.733 24.7908 11.8901 25.3832 12.1913C25.9756 12.4926 26.4885 12.9296 26.88 13.4666C26.9836 13.5942 27.1144 13.697 27.2627 13.7676C27.4111 13.8382 27.5733 13.8748 27.7376 13.8748C27.9019 13.8748 28.0641 13.8382 28.2125 13.7676C28.3608 13.697 28.4916 13.5942 28.5952 13.4666C28.9867 12.9296 29.4996 12.4926 30.092 12.1913C30.6844 11.8901 31.3396 11.733 32.0043 11.733C32.6689 11.733 33.3241 11.8901 33.9166 12.1913C34.509 12.4926 35.0218 12.9296 35.4133 13.4666C35.517 13.5942 35.6477 13.697 35.7961 13.7676C35.9444 13.8382 36.1066 13.8748 36.2709 13.8748C36.4352 13.8748 36.5975 13.8382 36.7458 13.7676C36.8942 13.697 37.0249 13.5942 37.1285 13.4666C37.52 12.9296 38.0329 12.4926 38.6253 12.1913C39.2178 11.8901 39.873 11.733 40.5376 11.733C41.2022 11.733 41.8575 11.8901 42.4499 12.1913C43.0423 12.4926 43.5552 12.9296 43.9467 13.4666C44.0503 13.5942 44.181 13.697 44.3294 13.7676C44.4777 13.8382 44.64 13.8748 44.8043 13.8748C44.9686 13.8748 45.1308 13.8382 45.2792 13.7676C45.4275 13.697 45.5583 13.5942 45.6619 13.4666C46.0534 12.9296 46.5662 12.4926 47.1587 12.1913C47.7511 11.8901 48.4063 11.733 49.0709 11.733C49.7356 11.733 50.3908 11.8901 50.9832 12.1913C51.5756 12.4926 52.0885 12.9296 52.48 13.4666C52.5836 13.5942 52.7144 13.697 52.8627 13.7676C53.0111 13.8382 53.1733 13.8748 53.3376 13.8748C53.5019 13.8748 53.6641 13.8382 53.8125 13.7676C53.9608 13.697 54.0916 13.5942 54.1952 13.4666C54.5856 12.9295 55.0976 12.4923 55.6894 12.1911C56.2812 11.8898 56.9359 11.7329 57.6 11.7333C58.7316 11.7333 59.8168 12.1828 60.617 12.983C61.4172 13.7831 61.8667 14.8684 61.8667 16C61.8684 16.6655 61.7122 17.3219 61.4109 17.9153C61.1095 18.5087 60.6717 19.0221 60.1333 19.4133C59.9992 19.5125 59.8903 19.6418 59.8152 19.7907C59.7401 19.9396 59.701 20.1041 59.701 20.2709C59.701 20.4377 59.7401 20.6022 59.8152 20.7511C59.8903 20.9001 59.9992 21.0293 60.1333 21.1285V21.12Z" fill="black"/>
<path d="M19.2 26.6667C18.0684 26.6667 16.9832 27.1162 16.183 27.9164C15.3828 28.7165 14.9333 29.8018 14.9333 30.9334C14.9333 31.2163 15.0457 31.4876 15.2457 31.6876C15.4458 31.8876 15.7171 32 16 32C16.2829 32 16.5542 31.8876 16.7542 31.6876C16.9543 31.4876 17.0667 31.2163 17.0667 30.9334C17.0667 30.3676 17.2914 29.8249 17.6915 29.4249C18.0916 29.0248 18.6342 28.8 19.2 28.8C19.4829 28.8 19.7542 28.6876 19.9542 28.4876C20.1543 28.2876 20.2667 28.0163 20.2667 27.7334C20.2667 27.4505 20.1543 27.1791 19.9542 26.9791C19.7542 26.7791 19.4829 26.6667 19.2 26.6667Z" fill="black"/>
<path d="M23.4667 20.2667C23.4667 19.1351 23.0171 18.0498 22.217 17.2497C21.4168 16.4495 20.3316 16 19.2 16C18.9171 16 18.6458 16.1124 18.4457 16.3124C18.2457 16.5125 18.1333 16.7838 18.1333 17.0667C18.1333 17.3496 18.2457 17.6209 18.4457 17.8209C18.6458 18.021 18.9171 18.1333 19.2 18.1333C19.7658 18.1333 20.3084 18.3581 20.7085 18.7582C21.1086 19.1583 21.3333 19.7009 21.3333 20.2667C21.3333 20.5496 21.4457 20.8209 21.6458 21.0209C21.8458 21.221 22.1171 21.3333 22.4 21.3333C22.6829 21.3333 22.9542 21.221 23.1542 21.0209C23.3543 20.8209 23.4667 20.5496 23.4667 20.2667Z" fill="black"/>
<path d="M11.7333 23.4667C11.7333 23.7496 11.8457 24.0209 12.0457 24.2209C12.2458 24.421 12.5171 24.5333 12.8 24.5333C13.0829 24.5333 13.3542 24.421 13.5542 24.2209C13.7543 24.0209 13.8667 23.7496 13.8667 23.4667C13.8667 22.3351 13.4171 21.2498 12.617 20.4497C11.8168 19.6495 10.7316 19.2 9.59999 19.2C9.31709 19.2 9.04578 19.3124 8.84574 19.5124C8.64571 19.7125 8.53333 19.9838 8.53333 20.2667C8.53333 20.5496 8.64571 20.8209 8.84574 21.0209C9.04578 21.221 9.31709 21.3333 9.59999 21.3333C10.1658 21.3333 10.7084 21.5581 11.1085 21.9582C11.5086 22.3583 11.7333 22.9009 11.7333 23.4667Z" fill="black"/>
<path d="M54.4 19.2C53.2684 19.2 52.1832 19.6495 51.383 20.4497C50.5829 21.2498 50.1333 22.3351 50.1333 23.4667C50.1333 23.7496 50.2457 24.0209 50.4457 24.2209C50.6458 24.421 50.9171 24.5333 51.2 24.5333C51.4829 24.5333 51.7542 24.421 51.9542 24.2209C52.1543 24.0209 52.2667 23.7496 52.2667 23.4667C52.2667 22.9009 52.4914 22.3583 52.8915 21.9582C53.2916 21.5581 53.8342 21.3333 54.4 21.3333C54.6829 21.3333 54.9542 21.221 55.1542 21.0209C55.3543 20.8209 55.4667 20.5496 55.4667 20.2667C55.4667 19.9838 55.3543 19.7125 55.1542 19.5124C54.9542 19.3124 54.6829 19.2 54.4 19.2Z" fill="black"/>
<path d="M23.4667 34.1334C23.1838 34.1334 22.9125 34.2457 22.7124 34.4458C22.5124 34.6458 22.4 34.9171 22.4 35.2C22.4 35.4829 22.5124 35.7542 22.7124 35.9543C22.9125 36.1543 23.1838 36.2667 23.4667 36.2667C24.0325 36.2667 24.5751 36.4915 24.9752 36.8915C25.3752 37.2916 25.6 37.8342 25.6 38.4C25.6 38.6829 25.7124 38.9542 25.9124 39.1543C26.1125 39.3543 26.3838 39.4667 26.6667 39.4667C26.9496 39.4667 27.2209 39.3543 27.4209 39.1543C27.6209 38.9542 27.7333 38.6829 27.7333 38.4C27.7333 37.2684 27.2838 36.1832 26.4836 35.383C25.6835 34.5829 24.5983 34.1334 23.4667 34.1334Z" fill="black"/>
<path d="M44.8 26.6667C44.5171 26.6667 44.2458 26.7791 44.0458 26.9791C43.8457 27.1791 43.7333 27.4505 43.7333 27.7334C43.7333 28.0163 43.8457 28.2876 44.0458 28.4876C44.2458 28.6876 44.5171 28.8 44.8 28.8C45.3658 28.8 45.9084 29.0248 46.3085 29.4249C46.7086 29.8249 46.9333 30.3676 46.9333 30.9334C46.9333 31.2163 47.0457 31.4876 47.2458 31.6876C47.4458 31.8876 47.7171 32 48 32C48.2829 32 48.5542 31.8876 48.7543 31.6876C48.9543 31.4876 49.0667 31.2163 49.0667 30.9334C49.0667 29.8018 48.6171 28.7165 47.817 27.9164C47.0168 27.1162 45.9316 26.6667 44.8 26.6667Z" fill="black"/>
<path d="M45.8667 17.0667C45.8667 16.7838 45.7543 16.5125 45.5542 16.3124C45.3542 16.1124 45.0829 16 44.8 16C43.6684 16 42.5832 16.4495 41.783 17.2497C40.9828 18.0498 40.5333 19.1351 40.5333 20.2667C40.5333 20.5496 40.6457 20.8209 40.8457 21.0209C41.0458 21.221 41.3171 21.3333 41.6 21.3333C41.8829 21.3333 42.1542 21.221 42.3542 21.0209C42.5543 20.8209 42.6667 20.5496 42.6667 20.2667C42.6667 19.7009 42.8914 19.1583 43.2915 18.7582C43.6916 18.3581 44.2342 18.1333 44.8 18.1333C45.0829 18.1333 45.3542 18.021 45.5542 17.8209C45.7543 17.6209 45.8667 17.3496 45.8667 17.0667Z" fill="black"/>
<path d="M40.5333 34.1334C39.4017 34.1334 38.3165 34.5829 37.5163 35.383C36.7162 36.1832 36.2667 37.2684 36.2667 38.4C36.2667 38.6829 36.379 38.9542 36.5791 39.1543C36.7791 39.3543 37.0504 39.4667 37.3333 39.4667C37.6162 39.4667 37.8875 39.3543 38.0876 39.1543C38.2876 38.9542 38.4 38.6829 38.4 38.4C38.4 37.8342 38.6248 37.2916 39.0248 36.8915C39.4249 36.4915 39.9675 36.2667 40.5333 36.2667C40.8162 36.2667 41.0875 36.1543 41.2876 35.9543C41.4876 35.7542 41.6 35.4829 41.6 35.2C41.6 34.9171 41.4876 34.6458 41.2876 34.4458C41.0875 34.2457 40.8162 34.1334 40.5333 34.1334Z" fill="black"/>
<path d="M53.3333 34.1334C52.2017 34.1334 51.1165 34.5829 50.3163 35.383C49.5162 36.1832 49.0667 37.2684 49.0667 38.4C49.0667 38.6829 49.179 38.9542 49.3791 39.1543C49.5791 39.3543 49.8504 39.4667 50.1333 39.4667C50.4162 39.4667 50.6875 39.3543 50.8876 39.1543C51.0876 38.9542 51.2 38.6829 51.2 38.4C51.2 37.8342 51.4247 37.2916 51.8248 36.8915C52.2249 36.4915 52.7675 36.2667 53.3333 36.2667C53.6162 36.2667 53.8875 36.1543 54.0876 35.9543C54.2876 35.7542 54.4 35.4829 54.4 35.2C54.4 34.9171 54.2876 34.6458 54.0876 34.4458C53.8875 34.2457 53.6162 34.1334 53.3333 34.1334Z" fill="black"/>
<path d="M10.6667 34.1334C10.3838 34.1334 10.1125 34.2457 9.91243 34.4458C9.71239 34.6458 9.60001 34.9171 9.60001 35.2C9.60001 35.4829 9.71239 35.7542 9.91243 35.9543C10.1125 36.1543 10.3838 36.2667 10.6667 36.2667C11.2325 36.2667 11.7751 36.4915 12.1752 36.8915C12.5752 37.2916 12.8 37.8342 12.8 38.4C12.8 38.6829 12.9124 38.9542 13.1124 39.1543C13.3125 39.3543 13.5838 39.4667 13.8667 39.4667C14.1496 39.4667 14.4209 39.3543 14.6209 39.1543C14.821 38.9542 14.9333 38.6829 14.9333 38.4C14.9333 37.2684 14.4838 36.1832 13.6837 35.383C12.8835 34.5829 11.7983 34.1334 10.6667 34.1334Z" fill="black"/>
<path d="M28.8 23.4667C28.5171 23.4667 28.2458 23.5791 28.0458 23.7791C27.8457 23.9791 27.7333 24.2504 27.7333 24.5333C27.7333 24.8162 27.8457 25.0876 28.0458 25.2876C28.2458 25.4876 28.5171 25.6 28.8 25.6C29.3658 25.6 29.9084 25.8248 30.3085 26.2248C30.7086 26.6249 30.9333 27.1675 30.9333 27.7333C30.9333 28.0162 31.0457 28.2876 31.2458 28.4876C31.4458 28.6876 31.7171 28.8 32 28.8C32.2829 28.8 32.5542 28.6876 32.7543 28.4876C32.9543 28.2876 33.0667 28.0162 33.0667 27.7333C33.0667 26.6018 32.6171 25.5165 31.817 24.7164C31.0168 23.9162 29.9316 23.4667 28.8 23.4667Z" fill="black"/>
</g>
<defs>
<clipPath id="clip0_6_219">
<rect width="64" height="64" fill="white"/>
</clipPath>
</defs>
</svg>
