<svg width="47" height="36" viewBox="0 0 47 36" fill="none" xmlns="http://www.w3.org/2000/svg">
<ellipse cx="23.2501" cy="17.25" rx="15.75" ry="15.75" fill="#C2E2BD"/>
<path d="M45.055 34.659H42.0518V32.2647C42.8427 32.249 43.5818 32.1664 44.2037 31.7344C45.0589 31.1402 45.4573 30.0411 45.4573 28.2757C45.4573 26.3131 44.8123 24.0256 43.8681 22.4242C45.0973 21.1706 45.7727 19.5238 45.7727 17.7582C45.7727 14.4594 43.3228 11.629 40.0671 11.1553C39.5882 10.1698 38.8156 9.35316 37.8643 8.81775C37.48 5.44308 34.6457 2.90814 31.2356 2.90814C30.3513 2.90814 29.4965 3.07863 28.6897 3.41263C27.9968 2.14011 27.2765 1.51475 26.5105 1.51475C25.7338 1.51475 25.015 2.14762 24.3134 3.44955C23.756 4.48373 23.2083 5.94998 22.7294 7.68943C22.4001 8.88569 22.1149 10.1707 21.8788 11.4925C20.6906 10.7938 19.3476 10.4274 17.9464 10.4274C17.5357 10.4274 17.1306 10.4598 16.7339 10.5223V5.45157C16.7339 3.2054 15.3156 1.18147 13.2046 0.415402C12.8566 0.28908 12.472 0.468863 12.3456 0.816897C12.2193 1.16502 12.399 1.54953 12.7472 1.67585C14.3296 2.25025 15.3929 3.76745 15.3929 5.45148V10.859C14.0964 11.3094 12.9417 12.0948 12.0478 13.1309V12.0359L13.3363 10.7474C13.5982 10.4854 13.5982 10.0609 13.3363 9.79909C13.0745 9.53733 12.6499 9.53733 12.3881 9.79909L12.0478 10.1394V6.05296C12.0478 5.68258 11.7476 5.38246 11.3773 5.38246C11.007 5.38246 10.7068 5.68258 10.7068 6.05296V7.05558L10.0306 6.37936C9.76873 6.1176 9.34417 6.1176 9.0824 6.37936C8.82055 6.6413 8.82055 7.06577 9.0824 7.32763L10.7069 8.95212V14.1517C9.72903 12.7423 8.57908 11.7048 7.36181 11.578V5.45157C7.36181 3.77335 8.41995 2.25767 9.995 1.68023C10.3427 1.55275 10.5211 1.16761 10.3936 0.819847C10.2661 0.472171 9.8811 0.294086 9.53325 0.421123C7.43235 1.19148 6.02073 3.21299 6.02073 5.45157V11.814C4.7272 12.3945 3.40462 13.9658 2.26664 16.3189C0.876924 19.1921 0.0473819 22.718 0.0473819 25.7505C0.0473819 28.8553 0.71502 30.7654 2.14837 31.7612C3.32487 32.5787 4.83063 32.6524 6.44126 32.6583V34.659H0.670499C0.300205 34.659 0 34.9591 0 35.3295C0 35.6999 0.300205 36 0.670499 36H45.055C45.4253 36 45.7255 35.6999 45.7255 35.3295C45.7255 34.9591 45.4253 34.659 45.055 34.659ZM12.7388 31.1743C13.2059 31.2446 13.6989 31.2632 14.2069 31.2679V34.6591H12.0476V31.7824C12.294 31.614 12.5251 31.4133 12.7388 31.1743ZM15.548 31.268C16.1512 31.2627 16.7333 31.2379 17.2758 31.1294V34.659H15.548V31.268ZM22.6065 27.2476C23.2412 28.0224 24.0133 28.3185 24.8274 28.432C23.9837 28.9687 23.0047 29.2565 21.9758 29.2565C21.2482 29.2565 20.5486 29.1133 19.8906 28.8326C20.1484 28.0842 20.2731 27.1453 20.2731 25.9893C20.2731 25.8756 20.2705 25.7607 20.2676 25.6457C20.7318 25.5009 21.1793 25.3121 21.6075 25.0834C21.8468 26.0148 22.177 26.7232 22.6065 27.2476ZM18.6453 30.5749C18.8713 30.4179 19.0723 30.232 19.2499 30.0164C20.0477 30.3748 20.8953 30.5692 21.7767 30.5946V34.659H18.6169L18.6453 30.5749ZM23.1176 30.4994C24.1026 30.3312 25.0279 29.9461 25.8399 29.3661V34.659H23.1176V30.4994ZM27.1809 28.5003C27.7037 28.4923 28.2253 28.4593 28.7221 28.3284V34.659H27.1809V28.5003ZM31.5265 27.6366V34.659H30.0632V27.6163C30.1842 27.5072 30.3016 27.3852 30.4144 27.2476C30.5476 27.0849 30.6711 26.9043 30.7856 26.7052C31.0016 27.0301 31.2489 27.3693 31.5265 27.6366ZM32.8675 28.5375C33.3969 28.7996 33.9729 28.9758 34.5755 29.0513V34.659H32.8675V28.5375ZM35.9165 29.0509C36.3979 28.9905 36.8676 28.8652 37.3135 28.6787C37.3717 30.2095 37.7709 31.187 38.5589 31.7344C39.1808 32.1664 39.9204 32.2515 40.7107 32.2661V34.6589H35.9164V29.0509H35.9165ZM43.4386 30.6331C43.1161 30.8572 42.6283 30.9123 42.0518 30.9246V29.7095C42.0643 29.6987 42.0768 29.6881 42.0886 29.6763L43.1532 28.6116C43.4151 28.3497 43.4151 27.9252 43.1532 27.6634C42.8913 27.4016 42.4668 27.4016 42.205 27.6634L42.0518 27.8165V25.903C42.0518 25.5326 41.7517 25.2325 41.3813 25.2325C41.0109 25.2325 40.7108 25.5326 40.7108 25.903V30.9248C40.1337 30.9125 39.6467 30.8574 39.3241 30.6332C38.8679 30.3163 38.6462 29.5452 38.6462 28.2757C38.6462 26.808 39.0498 25.0973 39.7256 23.6996C40.4136 22.2773 41.1063 21.7472 41.3813 21.7472C41.6564 21.7472 42.349 22.2773 43.0369 23.6996C43.7129 25.0973 44.1163 26.808 44.1163 28.2757C44.1163 29.5451 43.8946 30.3162 43.4386 30.6331ZM44.4317 17.7582C44.4317 19.0921 43.9488 20.341 43.0661 21.3201C42.5407 20.7501 41.9657 20.4061 41.3813 20.4061C41.1186 20.4061 40.8578 20.4756 40.6026 20.6038V13.4882C40.6026 13.1928 40.5775 12.9033 40.5313 12.6208C42.7975 13.2532 44.4317 15.3494 44.4317 17.7582ZM31.3196 12.5518C31.7994 10.8205 33.447 9.4726 35.246 9.4726C37.4603 9.4726 39.2616 11.2739 39.2616 13.4882V21.8579C38.3111 23.1839 37.586 25.2243 37.3709 27.1455C37.3677 27.1474 37.3644 27.1489 37.3613 27.1509C36.9186 27.4259 36.4277 27.608 35.9165 27.6942V23.7615L37.205 22.473C37.4669 22.211 37.4669 21.7866 37.205 21.5247C36.9431 21.2629 36.5186 21.2629 36.2568 21.5247L35.9165 21.865V17.7786C35.9165 17.4082 35.6164 17.1081 35.246 17.1081C34.8756 17.1081 34.5755 17.4082 34.5755 17.7786V18.7812L33.8994 18.105C33.6375 17.8431 33.213 17.843 32.9512 18.1049C32.6893 18.3667 32.6893 18.7913 32.9511 19.0531L34.5756 20.6776V27.6962C33.1312 27.4531 31.9142 26.4362 31.4375 25.0136C31.4363 25.0101 31.4347 25.007 31.4335 25.0035C31.7554 23.7063 31.9061 21.9853 31.9061 19.7337C31.9061 17.4629 31.6982 14.9728 31.3196 12.5518ZM26.5104 2.85584C26.6668 2.85584 27.4487 3.41817 28.4158 6.16936C28.5385 6.51865 28.9209 6.70245 29.2707 6.57953C29.62 6.45678 29.8037 6.07406 29.6809 5.7246C29.5421 5.32999 29.4026 4.96461 29.2621 4.62623C29.8884 4.37609 30.5507 4.24914 31.2356 4.24914C33.7152 4.24914 35.8141 5.92584 36.4034 8.25891C36.0304 8.17639 35.6435 8.1316 35.246 8.1316C33.5043 8.1316 31.909 8.98206 30.92 10.3315C30.8188 9.8378 30.7114 9.35048 30.5963 8.87353C30.5094 8.51361 30.1473 8.29199 29.7872 8.37897C29.4273 8.46587 29.2059 8.82803 29.2927 9.18804C30.1013 12.5404 30.565 16.3841 30.565 19.7337C30.565 23.242 30.1764 25.4217 29.3769 26.3976C28.8626 27.0255 28.2074 27.1394 27.1809 27.1582V23.7259L29.3561 21.5507C29.6179 21.2888 29.6179 20.8643 29.3561 20.6025C29.0941 20.3407 28.6697 20.3407 28.4078 20.6025L27.1809 21.8294V16.2413C27.1809 15.871 26.8808 15.5708 26.5104 15.5708C26.14 15.5708 25.8399 15.871 25.8399 16.2413V17.643L24.8862 16.6894C24.6243 16.4277 24.1998 16.4277 23.938 16.6894C23.6761 16.9514 23.6761 17.3758 23.938 17.6377L25.8378 19.5375C25.8385 19.5382 25.8393 19.5388 25.8399 19.5394V27.1582C24.8134 27.1394 24.1581 27.0254 23.6439 26.3976C22.8444 25.4217 22.4557 23.242 22.4557 19.7337C22.4557 15.9781 23.0414 11.6085 24.0222 8.04533C25.1966 3.77925 26.3002 2.85584 26.5104 2.85584ZM17.9463 11.7684C19.2836 11.7684 20.5568 12.1712 21.6427 12.9342C21.3023 15.2287 21.1147 17.5793 21.1147 19.7338C21.1147 21.2971 21.1876 22.6041 21.3397 23.6918C20.9679 23.9229 20.5755 24.1138 20.1666 24.2637C19.9505 22.4575 19.412 20.5902 18.6168 18.9452V17.3196L20.0299 15.9065C20.2917 15.6447 20.2917 15.2202 20.0299 14.9584C19.768 14.6966 19.3435 14.6965 19.0817 14.9585L18.6169 15.4232V14.6492C18.6169 14.2788 18.3167 13.9787 17.9464 13.9787C17.5761 13.9787 17.2759 14.2788 17.2759 14.6492V16.7875C16.4953 15.8432 15.6674 15.33 14.8776 15.33C13.9284 15.33 13.0427 16.0258 12.2839 17.032C12.1483 16.722 12.0043 16.4138 11.8528 16.1102C12.7485 13.5131 15.197 11.7684 17.9463 11.7684ZM2.91354 30.6599C2.25878 30.205 1.38838 29.2012 1.38838 25.7505C1.38838 22.9103 2.16795 19.6027 3.47381 16.9026C4.64835 14.474 6.07633 12.9047 7.11185 12.9047C8.19439 12.9047 10.0148 14.8004 11.4059 18.4233C10.9855 19.209 10.6308 20.0595 10.3606 20.8673C10.2431 21.2185 10.4325 21.5985 10.7837 21.7158C11.1348 21.8337 11.5148 21.6439 11.6323 21.2927C12.5872 18.438 14.0603 16.671 14.8774 16.671C15.4312 16.671 16.4595 17.5646 17.4084 19.5267C18.3625 21.4995 18.932 23.9154 18.932 25.9893C18.932 27.8421 18.5879 28.9818 17.8801 29.4736C17.3246 29.8595 16.5052 29.917 15.5479 29.9264V27.876L17.7231 25.7008C17.9849 25.4389 17.9849 25.0144 17.7231 24.7526C17.4612 24.4908 17.0367 24.4908 16.7749 24.7526L15.5479 25.9796V22.697C15.5479 22.3266 15.2477 22.0265 14.8774 22.0265C14.5071 22.0265 14.2069 22.3266 14.2069 22.697V29.927C13.2494 29.9182 12.4302 29.8596 11.8747 29.4737C11.1669 28.9819 10.8228 27.8422 10.8228 25.9893C10.8228 25.4473 10.8607 24.8793 10.9355 24.3009C10.983 23.9338 10.7238 23.5975 10.3565 23.55C9.98919 23.503 9.65304 23.7617 9.60557 24.129C9.52341 24.7641 9.48175 25.39 9.48175 25.9894C9.48175 28.3464 9.99902 29.8035 11.1095 30.5751C11.164 30.6129 11.2196 30.6478 11.2757 30.6816C10.422 31.2548 9.2241 31.3111 7.78226 31.317V24.3159L8.81179 23.2863C9.07364 23.0244 9.07364 22.5999 8.81179 22.3381C8.54994 22.0763 8.12538 22.0763 7.86361 22.3381L7.78226 22.4194V20.5736C7.78226 20.2032 7.48206 19.9031 7.11176 19.9031C6.74147 19.9031 6.44126 20.2032 6.44126 20.5736V26.3092L5.59706 25.465C5.33521 25.2032 4.91065 25.2032 4.64888 25.465C4.38703 25.7269 4.38703 26.1514 4.64888 26.4133L6.34659 28.111C6.37618 28.1406 6.4081 28.1663 6.44135 28.1892V31.3172C5.00425 31.3115 3.76758 31.2531 2.91354 30.6599ZM7.78226 32.6579C8.81724 32.6537 9.81486 32.6212 10.7066 32.3811V34.659H7.78226V32.6579Z" fill="#444444"/>
</svg>
