<svg width="64" height="64" viewBox="0 0 64 64" fill="none" xmlns="http://www.w3.org/2000/svg">
<path d="M63.8682 26.2552C63.6493 25.8872 63.2086 25.714 62.7975 25.8352C62.5826 25.8986 58.5183 27.1246 56.356 29.7803L55.2036 25.4845C55.1023 25.1067 54.777 24.8316 54.3879 24.7942C53.9978 24.7562 53.6271 24.9647 53.4556 25.3162L52.1566 27.9778L49.4282 24.0802C49.2128 23.7726 48.8352 23.6232 48.4672 23.7003C48.0997 23.7776 47.8138 24.0666 47.7406 24.4348L46.8343 28.9891L44.7922 20.84C44.6887 20.4272 44.3201 20.1359 43.8947 20.1305C43.8906 20.1305 43.8866 20.1305 43.8826 20.1305C43.462 20.1305 43.0921 20.411 42.9794 20.8171L41.0968 27.5945L39.1518 23.2345C38.992 22.8765 38.6253 22.6546 38.2351 22.6809C37.8439 22.7061 37.5097 22.9722 37.3974 23.3478L35.9775 28.0963L35.3033 25.2866C35.2087 24.8923 34.8713 24.6036 34.4673 24.5708C34.0638 24.5382 33.6839 24.7688 33.5272 25.1427L30.5539 32.2328L26.2073 21.967C26.025 21.5362 25.5523 21.3062 25.1011 21.4272C24.6494 21.5484 24.356 21.9841 24.4136 22.4482C24.6481 24.3382 24.8676 29.0907 23.706 32.0383L21.8244 26.8301C21.6861 26.4476 21.3132 26.1981 20.9106 26.2117C20.5041 26.2256 20.1531 26.5 20.0413 26.891L18.5569 32.0827C17.5851 29.8426 16.4181 26.1438 17.3861 22.8017C17.5118 22.368 17.3105 21.9065 16.9071 21.7034C16.5039 21.5005 16.0132 21.6136 15.7395 21.9729C15.6055 22.149 13.3222 25.1758 12.2071 28.3661L11.4668 26.4032C11.3238 26.0242 10.9557 25.7793 10.5487 25.7975C10.1438 25.8151 9.79619 26.0908 9.68682 26.481L8.52857 30.6116C7.6237 27.9549 5.66884 24.4803 1.44686 21.7532C1.10862 21.5347 0.668868 21.5566 0.35362 21.8077C0.0388715 22.0587 -0.0806278 22.4829 0.0571214 22.8614C0.0888712 22.9489 3.21035 31.7262 0.775242 41.9304C0.663368 42.3997 0.770617 42.8861 1.06949 43.2647C1.36786 43.6427 1.81524 43.8595 2.29698 43.8595H33.8754C34.3933 43.8595 34.8129 43.4397 34.8129 42.922C34.8129 42.4042 34.3933 41.9845 33.8754 41.9845H2.68748C4.31535 34.8104 3.39785 28.4483 2.59661 24.9802C4.36622 26.5717 5.68659 28.4717 6.53633 30.6537C7.41295 32.9052 7.4327 34.6329 7.43283 34.6474C7.43283 35.1158 7.77858 35.5123 8.2427 35.5762C8.7062 35.6402 9.14657 35.3515 9.27307 34.9005L10.7202 29.7392L11.6957 32.3258C11.8633 32.7699 12.3363 33.0189 12.7972 32.9053C13.258 32.7918 13.5614 32.3518 13.5035 31.8807C13.3122 30.3223 14.1769 28.1807 15.1693 26.3472C15.4423 30.9339 17.8679 34.9252 18.0003 35.1394C18.1953 35.4554 18.5585 35.6268 18.9263 35.5757C19.2941 35.5248 19.5974 35.2617 19.6994 34.9047L21.0457 30.1958L22.6137 34.5359C22.726 34.8463 22.993 35.0749 23.3171 35.1377C23.6419 35.2007 23.9745 35.0883 24.1944 34.8422C25.7813 33.0672 26.3121 29.9981 26.4405 27.3288L29.6939 35.0128C29.8408 35.3595 30.1807 35.5848 30.5572 35.5848C30.5577 35.5848 30.5583 35.5848 30.5588 35.5848C30.9358 35.584 31.2759 35.3575 31.4217 35.0098L34.1477 28.5096L34.9658 31.9194C35.0647 32.3315 35.4278 32.6262 35.8517 32.6378C36.2757 32.6499 36.6543 32.3753 36.7757 31.9692L38.4686 26.3073L40.4454 30.7386C40.6066 31.0997 40.9793 31.3204 41.3711 31.2916C41.7655 31.2622 42.099 30.9886 42.2049 30.6076L43.8351 24.7386L46.029 33.4928C46.1356 33.9182 46.5213 34.2164 46.9615 34.202C47.4 34.1913 47.7722 33.8779 47.8578 33.4478L49.1501 26.9538L51.5322 30.3566C51.7224 30.6286 52.0424 30.7801 52.3736 30.7536C52.7046 30.7276 52.9971 30.5284 53.1427 30.2301L54.0406 28.3901L55.1663 32.5862C55.2777 33.0017 55.6557 33.2867 56.0874 33.2807C56.5174 33.2735 56.8874 32.9748 56.9849 32.5559C57.3708 30.8984 59.1107 29.5848 60.7493 28.7146C59.0922 32.7319 58.9445 38.86 58.9928 41.9845H47.5781C47.0602 41.9845 46.6406 42.4042 46.6406 42.922C46.6406 43.4397 47.0602 43.8595 47.5781 43.8595H59.3081C59.7325 43.8595 60.1298 43.6926 60.427 43.3896C60.7238 43.0866 60.8824 42.686 60.8735 42.2616C60.7555 36.5756 61.4426 29.6847 63.7252 27.3965C64.0287 27.0933 64.0874 26.6236 63.8682 26.2552Z" fill="black"/>
<path d="M42.3112 41.9944H38.9947C38.4769 41.9944 38.0573 42.4141 38.0573 42.9319C38.0573 43.4496 38.4769 43.8694 38.9947 43.8694H42.3112C42.8291 43.8694 43.2487 43.4496 43.2487 42.9319C43.2488 42.4141 42.8291 41.9944 42.3112 41.9944Z" fill="black"/>
<path d="M12.6908 37.1715C13.2835 37.1715 13.764 36.691 13.764 36.0983C13.764 35.5055 13.2835 35.025 12.6908 35.025C12.0981 35.025 11.6176 35.5055 11.6176 36.0983C11.6176 36.691 12.0981 37.1715 12.6908 37.1715Z" fill="black"/>
<path d="M15.6909 40.1718C16.2837 40.1718 16.7642 39.6912 16.7642 39.0985C16.7642 38.5058 16.2837 38.0253 15.6909 38.0253C15.0982 38.0253 14.6177 38.5058 14.6177 39.0985C14.6177 39.6912 15.0982 40.1718 15.6909 40.1718Z" fill="black"/>
<path d="M51.5054 35.6114C52.0982 35.6114 52.5787 35.1309 52.5787 34.5381C52.5787 33.9454 52.0982 33.4649 51.5054 33.4649C50.9127 33.4649 50.4322 33.9454 50.4322 34.5381C50.4322 35.1309 50.9127 35.6114 51.5054 35.6114Z" fill="black"/>
</svg>
