<svg width="60" height="60" viewBox="0 0 60 60" fill="none" xmlns="http://www.w3.org/2000/svg">
<path d="M48.75 7.5H37.5V6.25C37.5 5.25544 37.1049 4.30161 36.4017 3.59835C35.6984 2.89509 34.7446 2.5 33.75 2.5H25C24.0054 2.5 23.0516 2.89509 22.3483 3.59835C21.6451 4.30161 21.25 5.25544 21.25 6.25V7.5H11.25C10.2554 7.5 9.30161 7.89509 8.59835 8.59835C7.89509 9.30161 7.5 10.2554 7.5 11.25V13.75C7.50341 14.5283 7.74892 15.2863 8.20248 15.9188C8.65604 16.5513 9.29517 17.0271 10.0312 17.28L11.0987 51.445C11.1422 53.071 11.8207 54.6153 12.9889 55.7471C14.1572 56.8788 15.7222 57.5081 17.3487 57.5H42.6538C44.2803 57.5081 45.8453 56.8788 47.0135 55.7471C48.1818 54.6153 48.8603 53.071 48.9038 51.445L49.9713 17.28C50.7069 17.0266 51.3455 16.5507 51.7985 15.9182C52.2516 15.2858 52.4968 14.528 52.5 13.75V11.25C52.5 10.2554 52.1049 9.30161 51.4016 8.59835C50.6984 7.89509 49.7446 7.5 48.75 7.5ZM23.75 6.25C23.75 5.91848 23.8817 5.60054 24.1161 5.36612C24.3505 5.1317 24.6685 5 25 5H33.75C34.0815 5 34.3995 5.1317 34.6339 5.36612C34.8683 5.60054 35 5.91848 35 6.25V7.5H23.75V6.25ZM46.4025 51.3675C46.3761 52.3429 45.9688 53.2692 45.2679 53.9481C44.5671 54.627 43.6283 55.0046 42.6525 55H17.3462C16.3705 55.0046 15.4317 54.627 14.7308 53.9481C14.0299 53.2692 13.6227 52.3429 13.5962 51.3675L12.54 17.5H47.46L46.4025 51.3675ZM50 13.75C50 14.0815 49.8683 14.3995 49.6339 14.6339C49.3995 14.8683 49.0815 15 48.75 15H11.25C10.9185 15 10.6005 14.8683 10.3661 14.6339C10.1317 14.3995 10 14.0815 10 13.75V11.25C10 10.9185 10.1317 10.6005 10.3661 10.3661C10.6005 10.1317 10.9185 10 11.25 10H48.75C49.0815 10 49.3995 10.1317 49.6339 10.3661C49.8683 10.6005 50 10.9185 50 11.25V13.75Z" fill="black"/>
<path d="M30 23.75C29.6685 23.75 29.3505 23.8817 29.1161 24.1161C28.8817 24.3505 28.75 24.6685 28.75 25V47.5C28.75 47.8315 28.8817 48.1495 29.1161 48.3839C29.3505 48.6183 29.6685 48.75 30 48.75C30.3315 48.75 30.6495 48.6183 30.8839 48.3839C31.1183 48.1495 31.25 47.8315 31.25 47.5V25C31.25 24.6685 31.1183 24.3505 30.8839 24.1161C30.6495 23.8817 30.3315 23.75 30 23.75Z" fill="black"/>
<path d="M38.785 23.75C38.6197 23.7405 38.4541 23.7648 38.2985 23.8216C38.1429 23.8784 38.0006 23.9664 37.8802 24.0801C37.7599 24.1939 37.6641 24.3311 37.5987 24.4833C37.5333 24.6355 37.4997 24.7994 37.5 24.965L36.875 47.465C36.8703 47.6292 36.8981 47.7927 36.9566 47.9461C37.0152 48.0995 37.1034 48.2399 37.2162 48.3593C37.3291 48.4786 37.4643 48.5745 37.6142 48.6416C37.7642 48.7086 37.9258 48.7455 38.09 48.75H38.125C38.4505 48.7501 38.7633 48.6233 38.9967 48.3963C39.2302 48.1694 39.3659 47.8604 39.375 47.535L40 25.035C40.0047 24.8708 39.9769 24.7074 39.9184 24.5539C39.8598 24.4005 39.7716 24.2601 39.6588 24.1407C39.5459 24.0214 39.4107 23.9255 39.2608 23.8584C39.1108 23.7914 38.9492 23.7545 38.785 23.75Z" fill="black"/>
<path d="M21.215 23.75C21.0508 23.7545 20.8892 23.7914 20.7392 23.8584C20.5893 23.9255 20.4541 24.0214 20.3412 24.1407C20.2284 24.2601 20.1402 24.4005 20.0816 24.5539C20.0231 24.7074 19.9953 24.8708 20 25.035L20.625 47.535C20.6341 47.8604 20.7698 48.1695 21.0033 48.3964C21.2367 48.6233 21.5495 48.7501 21.875 48.75H21.91C22.0742 48.7455 22.2358 48.7086 22.3858 48.6416C22.5357 48.5746 22.6709 48.4786 22.7838 48.3593C22.8966 48.24 22.9848 48.0995 23.0434 47.9461C23.1019 47.7927 23.1297 47.6292 23.125 47.465L22.5 24.965C22.4955 24.8008 22.4586 24.6392 22.3916 24.4892C22.3245 24.3393 22.2286 24.2041 22.1093 24.0912C21.9899 23.9784 21.8495 23.8902 21.6961 23.8316C21.5426 23.7731 21.3792 23.7454 21.215 23.75Z" fill="black"/>
</svg>
